<svg width="50" height="50" xmlns="http://www.w3.org/2000/svg">
 <g>
  <title>Layer 1</title>
  <path d="m15.00001,18.39394c-0.12121,-0.36364 -0.36364,-0.84849 -0.60606,-1.57576c-0.60606,-1.81818 -0.9697,-2.42424 -1.33333,-2.78788c-0.36364,-0.36364 -0.48485,-0.60606 -0.72727,-0.60606c-0.60606,0 -0.86994,-0.07937 -1.45455,0.12121c-0.51274,0.17592 -0.90478,0.29872 -1.33333,0.72727c-0.42855,0.42855 -0.87744,0.81686 -1.93939,1.81818c-0.6236,0.588 -1.18032,1.36211 -2.06061,2.30303c-0.46844,0.50072 -0.9403,1.0502 -1.33333,2.06061c-0.3199,0.82241 -0.24242,1.93939 -0.24242,2.42424c0,0.60606 -0.12121,1.45455 -0.12121,2.18182c0,0.72727 0,1.93939 0,2.66667c0,0.48485 0.14791,1.06605 0.48485,1.45454c0.39709,0.45785 0.93853,1.13268 1.57576,1.57576c0.58029,0.40349 1.68195,0.89008 2.30303,1.09091c0.95106,0.30753 1.33333,0.48485 1.81818,0.48485c0.84848,0 1.44418,-0.02152 2.18182,-0.36364c0.83744,-0.3884 1.17935,-0.6338 1.69697,-1.21212c0.45729,-0.51092 1.01809,-0.71898 1.33333,-1.81818c0.23391,-0.81561 0.12121,-1.69697 0.12121,-3.0303c0,-0.60606 0.05825,-1.33803 0,-1.69697c-0.0614,-0.37836 -0.20527,-0.54046 -0.36364,-0.60606c-0.11199,-0.04639 -0.22106,-0.05894 -0.48485,-0.12121c-0.11797,-0.02785 -0.83454,0.03325 -1.09091,0.12121c-0.58461,0.20058 -0.95498,0.30224 -1.33333,0.36364c-0.11965,0.01942 -0.48485,0.12121 -0.84848,0.12121c-0.24242,0 -0.36364,0 -0.48485,0c-0.12121,0 -0.12121,0 -0.12121,0c0.36364,0 0.61196,-0.11944 1.81818,0c0.61506,0.0609 1.33333,0.12121 1.57576,0.12121c0.12121,0 0.24242,0 0.24242,0c0.12121,0 0.24242,0 0.24242,0c0.24242,0 0.36109,0.00793 0.72727,0.12121c0.84302,0.2608 1.21212,0.24242 1.69697,0.24242c0,0 0.12121,0 0.24242,0c0.12121,0 0.15672,-0.08571 0.24243,0c0.08571,0.08571 0,0.12121 0,0.24242c0,0.24242 0.10997,0.73182 0,2.06061c-0.06081,0.73479 -0.12121,1.33333 -0.12121,2.18182c0,0.60606 -0.18173,1.08588 -0.24243,2.18182c-0.03352,0.60513 -0.12121,1.33333 -0.12121,1.69697c0,0.12121 0,0.24242 0,0.24242c0,0.12121 0,0.12121 0,0.24242c0,0.12121 0,0.24242 0,0.24242l0,0.12121" id="svg_42" stroke-width="3" stroke="#bf0000" fill="none"/>
  <path d="m26.63637,15.36364c-0.12121,0.12121 -0.49171,0.35364 -0.84848,0.60606c-0.49475,0.35004 -0.89815,0.54448 -1.21212,0.84848c-0.7491,0.72532 -1.17327,1.52377 -1.45454,2.06061c-0.35579,0.67905 -0.50768,1.20529 -0.60606,1.57576c-0.15864,0.59736 -0.30257,1.07973 -0.36364,1.57576c-0.05924,0.48121 -0.09555,0.97441 0,1.93939c0.0609,0.61506 0.22929,1.3637 0.48485,2.18182c0.08081,0.25871 0.2891,0.77236 0.60606,1.21212c0.40092,0.55625 1.05776,1.1265 1.57576,1.57576c0.45785,0.39709 1.00727,0.88939 1.33333,1.09091c0.43745,0.27036 0.94074,0.77768 1.33333,0.9697c0.68866,0.33681 1.33333,0.24242 1.93939,0.24242c0.60606,0 1.30437,-0.17162 1.69697,-0.36364c0.68866,-0.33681 1.10987,-0.83023 1.57576,-1.33333c0.7593,-0.81995 0.9574,-1.34281 1.33334,-1.81818c0.58723,-0.74256 0.99839,-1.31951 1.45454,-2.30303c0.3884,-0.83744 0.60514,-1.43219 0.72727,-2.42424c0.04443,-0.36091 0,-0.84848 0,-1.93939c0,-0.84848 0.13435,-1.36371 -0.12121,-2.18182c-0.08081,-0.25871 -0.39862,-0.83252 -0.60606,-1.33333c-0.29337,-0.70826 -0.55967,-1.22135 -0.60606,-1.33333c-0.1312,-0.31674 -0.31118,-0.27676 -0.48485,-0.48485c-0.38833,-0.4653 -0.69012,-0.66167 -0.84849,-0.72727c-0.11198,-0.04639 -0.72727,-0.36364 -1.09091,-0.48485c-0.72727,-0.24242 -1.21212,-0.24242 -1.57576,-0.24242c-0.24243,0 -0.60606,0 -0.9697,0c-0.60606,0 -0.97126,-0.01942 -1.09091,0c-0.37836,0.0614 -0.60606,0.24242 -0.84848,0.36364c-0.24242,0.12121 -0.43464,-0.05021 -0.60606,0.12121c-0.08571,0.08571 -0.12121,0.12121 -0.36364,0.24242l-0.24243,0.12121l0,0" id="svg_43" stroke-width="3" stroke="#bf0000" fill="none"/>
  <path d="m45.06061,6.0303c0,0.12121 0.06149,0.60901 0.12121,1.21212c0.06091,0.61506 0.30283,1.68945 0.36364,2.42424c0.08998,1.08719 -0.03437,1.69819 0,2.18182c0.06076,0.85494 0.09108,1.45548 0.12121,1.93939c0.06072,0.97536 0.00273,1.70424 0.12121,2.66667c0.06106,0.49603 0.2254,1.21415 0.36364,2.30303c0.10794,0.85027 0.24242,1.33333 0.24242,1.93939c0,0.12121 0.06031,0.47585 0.12121,1.09091c0.04778,0.48249 0,0.84848 0.12121,1.33333c0,0 -0.07405,0.24697 0,0.84849c0.06106,0.49603 0.24242,1.21212 0.24242,1.57576c0,0.24243 0,0.24243 0,0.60606c0,0.24242 0,0.48485 0,0.60606l0,0.12121l0,0.12121" id="svg_44" stroke-width="3" stroke="#bf0000" fill="none"/>
  <path d="m46.51516,34.0303c-0.12121,0 -0.14376,-0.03727 -0.36364,0.12121c-0.13906,0.10023 -0.12121,0.12121 -0.12121,0.24242c0,0.12122 -0.24242,0.24243 -0.24242,0.36364c0,0.12121 0,0.24242 0,0.24242c0,0.12121 0.11123,0.53174 0.24242,0.84848c0.13916,0.33596 0.12121,0.48485 0.12121,0.60606c0,0 0.12121,0 0.24242,0c0,0 0.12121,0 0.12121,0c0.12121,0 0.24242,0 0.36364,0c0,0 0.12121,0 0.36364,0c0.24242,0 0.36364,0 0.36364,0c0.12121,0 0.24242,0 0.36364,0c0,0 -0.01483,-0.12921 0.12121,-0.36364c0.21936,-0.378 0.42561,-0.85212 0.48485,-1.33333c0.06106,-0.49603 0.12121,-1.09091 0.12121,-1.21212c0,-0.12121 0,-0.24242 0,-0.36364c0,0 -0.12121,0 -0.12121,0c-0.12121,0 -0.48485,-0.12121 -0.72727,-0.12121c-0.24242,0 -0.74982,0.08395 -0.9697,0.24242c-0.13906,0.10023 -0.36364,0.24242 -0.60606,0.24242c-0.12121,0 -0.24242,0.12121 -0.24242,0.12121c-0.12121,0.12121 -0.15672,0.15672 -0.24242,0.24242c-0.08571,0.08571 -0.12121,0.12121 -0.12121,0.12121c0,0.12121 0.02962,0.24424 0,0.48485c-0.06106,0.49603 -0.12121,0.60606 -0.12121,0.84848c0,0.12121 0,0.24242 0,0.24242c0,0.12121 0.12121,0.12121 0.12121,0.12121c0.12121,0 0.24242,0 0.24242,0c0.12121,0 0.24242,0 0.24242,0c0.12121,0 0.24242,0 0.36364,0l0,-0.12121" id="svg_45" stroke-width="3" stroke="#bf0000" fill="none"/>
 </g>

</svg>