<svg width="100" height="100" xmlns="http://www.w3.org/2000/svg">
 <g>
  <title>Layer 1</title>
  <path fill="none" stroke="#5fbf00" id="svg_7" d="m33.96027,41.60772c0.13351,0.26702 0.12528,0.80201 0.26702,2.00267c0.12619,1.06898 0.13351,2.13618 0.13351,3.6048c0,1.33512 0.03675,2.40619 -0.13351,4.27237c-0.10984,1.204 -0.00195,2.14268 -0.13351,3.4713c-0.06708,0.67746 -0.13351,1.86916 -0.13351,2.53672c0,0.53405 0,0.80107 0,1.06809c0,0.53404 -0.04732,1.60381 0,2.26969c0.06693,0.9417 0.06826,1.33912 0.13351,1.86916c0.06726,0.54636 0.21023,1.47064 0.26702,2.2697c0.06693,0.94169 0.13351,1.33511 0.13351,1.60214c0,0.53404 0.13351,0.66756 0.13351,1.06809c0,0.26702 0.01926,0.39174 0.13351,0.66756c0.16157,0.39006 0.13351,0.66756 0.13351,0.93458c0,0.13351 0,0.26702 0,0.40053l0,0l0,0"/>
  <path fill="none" stroke="#5fbf00" id="svg_8" d="m6.85745,60.96688c0,0.26702 0.0774,0.55499 0.40053,1.33512c0.34274,0.82745 0.63321,1.62878 1.46863,2.67023c0.77022,0.96016 1.38647,1.82385 2.67023,2.93725c0.50431,0.43738 1.18578,0.95998 1.60214,1.2016c0.25821,0.14985 0.50162,0.5323 1.33511,0.66756c0.26357,0.04277 1.33511,0.13351 2.26969,0.13351c1.06809,0 2.27521,-0.11312 2.80374,-0.26702c0.40536,-0.11804 0.99832,-0.61848 1.60214,-1.46862c0.9016,-1.26939 1.46863,-2.2697 2.00267,-3.07076c0.80107,-1.2016 1.31361,-1.96713 1.60214,-3.07076c0.44417,-1.69897 0.43164,-2.80426 0.40054,-3.73832c-0.06679,-2.006 -0.31008,-3.49666 -0.80107,-5.07343c-0.33915,-1.08914 -0.49271,-2.04993 -0.93458,-3.33778c-0.19378,-0.56476 -0.42566,-1.38943 -0.93458,-2.2697c-0.33412,-0.57792 -0.8771,-1.6199 -1.06809,-2.13618c-0.10358,-0.28 -0.13351,-0.40054 -0.13351,-0.53405c0,-0.13351 0,-0.13351 0,-0.26702c0,-0.13351 -0.36885,-0.94131 -0.66756,-2.26969c-0.12077,-0.53707 -0.13351,-1.06809 -0.13351,-1.2016c0,-0.13351 0.06578,-0.53729 0,-1.2016c-0.06708,-0.67747 -0.13351,-0.93458 -0.13351,-1.06809c0,0 0,0.13351 0,0.66756c0,0.26702 0.07544,1.33692 0.13351,2.2697c0.06688,1.07432 0.5962,2.24807 0.80107,2.93725c0.19399,0.65256 0.76225,1.9546 1.2016,2.93725c0.51699,1.15629 0.69525,1.9965 0.80107,2.53672c0.18148,0.92646 0.36867,1.47459 0.53404,2.2697c0.22419,1.0779 0.46899,1.87727 0.66756,3.20427c0.10075,0.67328 0.33361,1.46151 0.40053,2.40321c0.03786,0.5327 0.06155,1.21695 -0.26702,2.40321c-0.2254,0.81376 -0.54547,1.73083 -0.93458,2.67023c-0.27514,0.66425 -0.75339,1.28411 -1.2016,2.13618c-0.33472,0.63631 -1.02121,1.49476 -1.33511,2.00267c-0.35096,0.56786 -0.82617,1.20507 -1.46863,1.60213c-0.35914,0.22197 -1.33511,0.80107 -2.13618,0.93458c-0.80107,0.13351 -1.60214,0.13351 -2.13618,0.13351c-0.66756,0 -1.34101,0.01653 -1.73565,-0.13351c-1.90084,-0.72269 -2.76242,-1.386 -3.4713,-2.2697c-1.08925,-1.35788 -1.279,-2.29063 -1.60214,-3.07076c-0.34274,-0.82745 -0.52468,-1.33633 -0.66756,-2.40321c-0.12531,-0.93571 -0.26702,-1.73565 -0.53405,-2.80374c0,0 0,-0.13351 0,-0.26702c0,-0.13351 0,0 0,0.26702c0,0.66756 0.126,1.42418 0.40053,2.40321c0.2549,0.909 0.1423,1.59953 0.53405,2.93725c0.27316,0.9328 0.62366,2.43159 1.06809,3.07076c0.48804,0.7019 1.28947,1.51763 2.00267,2.13618c0.50431,0.43739 1.18724,0.81624 1.46863,1.06809c0.637,0.57014 1.09427,1.10754 1.86916,1.46862c0.61707,0.28754 1.86916,0.40054 2.67023,0.40054c1.06809,0 1.61146,-0.08298 2.00267,-0.53405c0.27663,-0.31895 0.73886,-1.59095 0.93458,-3.07076c0.2108,-1.59381 0.14083,-3.60392 0.26702,-4.6729c0.14174,-1.20066 0.34246,-2.80554 0.40053,-3.73832c0.06688,-1.07432 0.13351,-2.26969 0.13351,-3.07076c0,-0.93458 -0.10026,-2.67105 -0.13351,-3.33778c-0.06684,-1.34011 -0.13788,-2.00206 -0.26702,-2.93725c-0.27638,-2.0014 -0.26702,-3.20427 -0.40054,-4.27237c-0.13351,-1.06809 -0.08554,-1.87728 -0.26702,-2.80374c-0.10582,-0.54021 -0.15493,-0.92968 -0.26702,-1.46863c-0.16537,-0.7951 -0.13351,-1.46862 -0.13351,-2.26969c0,-0.26702 0,-0.40054 0,-0.53405c0,-0.13351 0,-0.26702 0,-0.26702c0,0.40053 0.35473,2.5467 0.66756,3.87183c0.34974,1.48154 0.95664,3.91547 1.73565,5.74099c0.70304,1.64751 1.81026,3.67289 2.13618,5.07343c0.39455,1.69547 0.30693,2.53771 0.26702,3.33779c-0.06684,1.34011 -0.40054,2.4032 -0.66756,3.47129c-0.40053,1.60214 -0.68356,2.52955 -1.33511,4.00534c-0.41067,0.93017 -0.82733,1.72143 -1.46863,2.93725c-0.41784,0.79218 -0.56018,1.58768 -1.06809,2.53672c-0.28174,0.52643 -0.29578,1.37513 -1.73565,1.86916c-0.75771,0.25998 -1.84243,0.32038 -3.07076,-0.26702c-0.94072,-0.44987 -2.63472,-2.0449 -3.87183,-3.4713c-1.31215,-1.51292 -2.08007,-3.22522 -2.40321,-4.00534c-0.22849,-0.55163 -0.26702,-0.66756 -0.26702,-0.80107l0,-0.13351" stroke-width="3"/>
  <path fill="none" stroke="#5fbf00" id="svg_9" d="m34.89485,40.1391c-0.13351,0.40053 -0.46652,1.17532 -0.66756,3.4713c-0.20962,2.39404 -0.29609,4.27016 -0.53405,7.61015c-0.1521,2.13494 -0.13351,4.53939 -0.13351,7.87717c0,1.60214 0,3.20428 0,4.6729c0,0.66756 0,0.80107 0,0.80107c0,0.13351 0,0.40054 0,0.66756c0,0.26702 0,0.93458 0,1.33512c0,0.13351 0,0.26702 0,0.26702c0,0.13351 0,0.26702 0,0.26702c0.13351,-0.13351 0.26622,-0.51208 0.40054,-1.73565c0.36421,-3.31786 0.10663,-6.95331 0.40053,-10.14687c0.51909,-5.64058 1.48365,-9.07632 1.86916,-11.48198c0.27787,-1.73395 0.36143,-2.04178 0.26702,-2.13618c-0.09441,-0.09441 -0.35286,0.41001 -0.66756,1.86916c-0.23211,1.07622 -0.50813,1.71637 -0.93458,4.40588c-0.35789,2.25715 -0.73403,4.52335 -0.93458,8.27771c-0.11395,2.13314 -0.20023,5.4704 -0.26702,7.34313c-0.08567,2.40168 -0.01875,4.00757 0.13351,5.20694c0.1189,0.93655 0.13351,1.33511 0.13351,1.46862l0,0.13351l0,0" stroke-width="3"/>
  <path fill="none" stroke="#5fbf00" id="svg_10" d="m44.64118,42.14177c0.13351,0.26702 0.62593,1.08319 0.93458,1.86916c0.58966,1.5016 1.05896,2.93911 1.33512,4.27237c0.38772,1.87186 0.69145,3.09293 1.06809,4.6729c0.51897,2.17706 1.05406,3.47604 1.60214,5.07343c0.78113,2.27663 1.51703,3.4547 2.13618,5.34045c0.43482,1.32435 1.05141,2.6385 1.46863,4.40588c0.18659,0.7904 0.54547,1.59732 0.93458,2.53672c0.27514,0.66425 0.79687,1.79066 1.06809,2.26969c0.27909,0.49292 0.53405,0.80107 0.66756,0.93458c0,0 0,0.13351 0,0.13351c0,0.13351 0.17616,0.16552 0.26702,0c0.59233,-1.07903 0.82516,-3.4663 1.2016,-5.34046c0.428,-2.13085 1.04564,-4.65096 1.33511,-6.40855c0.4361,-2.64787 0.49566,-4.27725 0.66756,-5.47397c0.32769,-2.28135 0.43827,-3.49992 0.80107,-4.53939c0.5316,-1.52312 0.9073,-2.54889 1.33511,-3.4713c0.50244,-1.08331 0.8272,-1.72119 1.33511,-2.67023c0.42261,-0.78965 0.79932,-1.56971 0.93458,-2.40321c0.02139,-0.13179 -0.17485,-0.44779 0.26702,-1.73565c0.19378,-0.56476 0.46642,-0.78485 0.53405,-1.2016c0.02139,-0.13179 0.14798,0.30048 -0.13351,1.2016c-0.44508,1.4248 -1.6287,3.45951 -2.2697,4.93992c-0.9753,2.25249 -1.52834,3.58981 -1.86916,5.07343c-0.4866,2.11824 -0.42598,3.33492 -0.53405,4.40588c-0.17476,1.73198 -0.22554,2.80907 -0.40053,4.00534c-0.21606,1.47698 -0.30844,2.40775 -0.40054,3.33778c-0.13417,1.35493 -0.53325,2.24773 -0.66756,3.4713c-0.08741,0.79628 -0.20014,1.59591 -0.26702,2.67023c-0.04978,0.79952 -0.19531,1.75618 -0.53404,2.80374c-0.22121,0.6841 -0.37247,1.07856 -0.53405,1.46862c-0.11425,0.27582 -0.13351,0.53405 -0.13351,0.66756c0,0.13351 0,0.26702 -0.13351,0.26702c0,0 -0.51358,0.15355 -1.60213,-1.86916c-0.88126,-1.63753 -1.19609,-3.30585 -1.73565,-5.74099c-0.35136,-1.58577 -0.61007,-2.95879 -1.33511,-4.80641c-0.74287,-1.89304 -1.30272,-3.74936 -2.13618,-6.14153c-0.51416,-1.47571 -1.16703,-3.30133 -1.46862,-4.27237c-0.20193,-0.65014 -0.99152,-2.12493 -1.2016,-3.33778c-0.18371,-1.06061 -0.39166,-2.27199 -0.53405,-2.80374c-0.25142,-0.9389 -0.38919,-1.47152 -0.66756,-2.53672c-0.38489,-1.4728 -0.53405,-2.13618 -0.53405,-2.40321c0,-0.13351 0,-0.26702 0,-0.13351c0,0.53404 0.24916,1.55967 0.93458,3.60481c0.48373,1.44336 0.73555,2.82371 1.33511,4.6729c0.48198,1.48653 1.13889,3.30913 2.13618,5.8745c0.71916,1.84992 1.66458,4.25332 2.00267,5.47396c0.32857,1.18625 0.99944,2.78959 1.2016,3.87183c0.19765,1.0581 0.33355,2.39492 0.40054,3.20427c0.07708,0.93139 0.53274,2.3752 0.66756,3.33778c0.07407,0.52888 0,0.93458 0,1.06809c0,0.13351 0.06126,0.09258 0.13351,0.26702c0.05109,0.12335 0.13351,0.26702 0.26702,0.40054c0,0 -0.09441,0.0391 0,0.13351c0.09441,0.09441 0.19477,-0.04093 0.26702,0.13351c0.05109,0.12335 0.13351,0.13351 0.13351,0.26702c0,0 0,0.13351 0.13351,0.13351c0.13351,0 0.38206,-0.4057 0.80107,-1.86916c0.38368,-1.34005 0.82701,-3.6356 1.33511,-5.20694c0.66363,-2.05232 1.27551,-3.17704 1.73565,-4.53939c0.79814,-2.36305 0.99052,-4.02158 1.33511,-5.47396c0.54615,-2.30193 1.08209,-3.60023 1.46862,-4.80641c0.55419,-1.72932 0.90302,-2.81612 1.33512,-3.87183c0.49809,-1.21695 0.77062,-1.75161 1.2016,-2.53672c0.37462,-0.68243 0.60067,-1.19537 0.66756,-2.26969c0.01659,-0.26651 0,-0.53405 0,-0.66756l0,0" stroke-width="3"/>
  <path fill="none" stroke="#5fbf00" id="svg_11" d="m74.68125,42.14177c0,0.26702 -0.324,2.4108 -0.53405,4.13885c-0.29398,2.41855 -0.60075,4.0015 -0.66756,5.74099c-0.08198,2.13461 -0.15245,3.46954 -0.26702,4.80641c-0.16,1.86708 -0.41618,3.06659 -0.80107,4.53939c-0.27837,1.06519 -0.50824,2.00718 -0.80106,3.60481c-0.12273,0.66962 -0.13351,1.33511 -0.13351,2.13618c0,0.26702 0,0.40054 0,0.53405c0,0.13351 0,0.13351 0,0.26702c0,0 0.1218,0.27112 0.26702,0.66756c0.24729,0.67511 0.46545,1.17807 0.53405,1.46862c0.06135,0.25988 0,0.40054 0,0.53405c0,0.13351 -0.09441,0.17262 0,0.26702c0.09441,0.0944 0.26702,0.13351 0.26702,0.13351c0.13351,0 0.78835,0.58111 1.2016,0.66756c1.44344,0.30194 2.67075,0.22841 4.13885,0.26702c2.53935,0.06678 4.40672,0.21286 6.14153,0.26702c2.13931,0.06679 3.33778,0.13351 4.53939,0.13351c1.46862,0 2.40321,0 2.93725,0c0.66756,0 0.93458,0 1.06809,0c0.13351,0 0.13351,0 0.26702,0c0.13351,0 -0.40156,0.0966 -1.06809,0.13351c-2.41429,0.13372 -6.00938,0.33875 -7.87717,0.26702c-1.73949,-0.0668 -3.74728,-0.20235 -4.93993,-0.40053c-1.21426,-0.20177 -2.73953,-0.93379 -3.73832,-1.33511c-1.02158,-0.41048 -1.4722,-0.50337 -1.60213,-0.53405c-0.29055,-0.06859 -0.27187,-0.09787 -0.40054,-0.13351c-0.75025,-0.20781 -2.32251,-1.08208 -3.33778,-1.60214c-0.85689,-0.43893 -1.46863,-0.80107 -1.73565,-0.80107c0,0 0,-0.13351 0,-0.13351c0,-0.40053 0.81429,-1.68562 1.06809,-2.67023c0.33492,-1.2993 0.62863,-2.78656 0.80106,-4.00534c0.29983,-2.11925 0.20023,-3.60124 0.26703,-5.47397c0.09995,-2.80196 0.04897,-4.55056 0.26702,-5.8745c0.28947,-1.75758 0.54964,-2.79942 0.80106,-3.73832c0.28478,-1.06349 0.35831,-1.61451 0.53405,-2.13618c0.32462,-0.96358 0.80106,-1.86916 1.2016,-3.07076c0.26702,-0.80107 0.73014,-1.40718 0.93459,-2.40321c0.05369,-0.26157 -0.04105,-0.55888 0.13351,-0.80107c0.1104,-0.15318 0.26702,-0.13351 0.26702,-0.13351c0.80107,0 1.86583,0.20023 3.87183,0.26702c1.33437,0.04443 2.53887,0.08646 4.27236,0c1.34011,-0.06684 2.40321,-0.13351 3.73832,-0.13351c0.80107,0 2.27272,-0.08518 3.4713,0c0.9417,0.06692 2.00267,0.13351 2.53672,0.13351c0.13351,0 0.26702,0 0.26702,0c0.13351,0 0.26702,0 0.13351,0c-0.66756,0 -2.27103,-0.08031 -3.33779,-0.13351c-4.02032,-0.20052 -5.8745,-0.53405 -6.80908,-0.53405c-0.66756,0 -1.60213,0 -2.26969,0c-0.80106,0 -2.00267,-0.13351 -2.67023,-0.13351c-0.66756,0 -1.60213,0 -1.86916,0c-0.40054,0 -0.53405,0 -0.66756,0c0,0 -0.13708,-0.03068 -0.26702,0c-0.29055,0.06859 -0.4081,0.25601 -0.80106,0.53404c-0.54495,0.38557 -0.72881,0.62663 -0.80107,0.80107c-0.05109,0.12335 -0.26702,0.66756 -0.26702,1.2016c0,1.46863 0.06658,2.12907 0.13351,3.07076c0.04732,0.66588 0.06667,1.33012 0.13351,2.67023c0.04655,0.93342 0,1.86916 0,3.20427c0,0.80107 0.00821,2.40207 0.13351,3.33779c0.14288,1.06688 0.13351,2.13618 0.13351,3.07076c0,0.80107 0.00001,2.13618 -0.13351,3.07076c-0.13351,0.93458 -0.40874,2.26855 -0.53405,3.20427c-0.14288,1.06688 -0.11887,2.41353 -0.26702,3.47129c-0.13481,0.96259 -0.21196,1.87143 -0.26702,2.53672c-0.06699,0.80935 -0.15539,1.19826 -0.26703,2.00267c-0.1662,1.19752 -0.13351,1.86916 -0.13351,2.67023c0,0.40054 0,0.40054 0,0.53405c0,0.13351 -0.01772,0.26584 0,0.13351c0.20206,-1.50879 0.60077,-4.26924 0.66756,-6.40855c0.05833,-1.86825 0,-4.53939 0,-6.14153c0,-1.46863 0.13351,-3.33779 0.26702,-4.53939c0.13351,-1.2016 0.46719,-2.9317 0.53405,-4.13885c0.10337,-1.8663 0.14553,-3.33651 0.26702,-4.53939c0.14819,-1.46722 0.08945,-2.27151 0.13351,-2.80374c0.06699,-0.80935 0.44685,-1.59278 0.66756,-2.80374c0.16928,-0.92877 0.18363,-1.6179 0.40054,-2.53672c0.097,-0.41091 0.26702,-0.80107 0.26702,-0.93458c0,-0.13351 0,-0.13351 0,0c0,0.40053 -0.06492,0.77754 -0.13351,1.06809c-0.06135,0.25988 -0.46712,0.79395 -0.53405,1.73565c-0.05679,0.79905 -0.13351,1.46863 -0.13351,2.00267c0,0 0,0.13351 0,0.40054c0,0.13351 0,0.40053 0,0.80107c0,0.53404 0,1.33511 0,1.60213c0,0.13351 -0.13351,0.93458 -0.26702,1.86916c-0.13351,0.93458 -0.13351,2.00267 -0.13351,2.53672c0,0.40054 0,0.40054 0,0.53405c0,0.13351 0,0.40054 0,0.53405c0,0.26702 -0.06625,0.38822 -0.13351,0.93458c-0.06525,0.53004 -0.13351,0.93458 -0.13351,1.2016c0,0.13351 0,0.26702 0,0.26702c0,0.13351 -0.19939,0.65134 -0.26702,1.06809c-0.04277,0.26357 0,0.40053 0,0.53404c0,0.13351 0,0.13351 0.40053,0.13351c0.93459,0 1.33661,-0.07366 2.53672,-0.13351c1.3401,-0.06684 2.13618,-0.13351 2.93725,-0.13351c0.53405,0 1.20161,0 1.86916,0c0.53404,0 1.06809,0 1.46862,0c0.26703,0 0.40054,0 0.53405,0c0,0 0.26702,0.13351 0.26702,0c0,-0.40054 -1.5959,0.20014 -2.67023,0.26702c-1.59904,0.09956 -2.53672,0 -3.6048,0c-0.13351,0 -0.93684,0.0129 -1.73565,-0.13351c-0.66962,-0.12273 -1.18539,-0.19939 -1.60214,-0.26702c-0.13178,-0.02139 -0.40053,0 -0.13351,0c0.93458,0 3.07076,-0.26702 4.40588,-0.26702c1.2016,0 2.67023,0 3.20427,0c0.40054,0 0.53405,0 0.66756,0c0.26703,0 0.4335,-0.04442 0.26703,-0.13351c-0.60022,-0.32124 -3.23911,-0.66423 -4.53939,-1.06809c-0.97103,-0.30159 -2.12627,-0.73399 -2.80374,-0.80107c-0.93003,-0.09209 -1.33648,0.03304 -1.73565,0c-0.80935,-0.06698 -1.2016,-0.26702 -1.33511,-0.26702c-0.13351,0 -0.34944,0.12335 -0.40054,0c-0.07226,-0.17444 0.81065,-0.04122 1.46863,0.13351c0.81612,0.21673 1.17808,0.46546 1.46863,0.53405c0.12994,0.03067 0.26702,0 0.40054,0c0,0 0.13351,0 0.13351,0c0.13351,0 0.13351,0 0.13351,0c0,-0.13351 0,-0.40054 0,-0.93458c0,-0.53404 -0.06589,-1.3189 -0.13351,-1.73565c-0.04277,-0.26358 -0.13351,-0.66756 -0.13351,-0.66756c0,-0.80107 -0.13214,-1.34058 0,-2.93725c0.06698,-0.80935 0.13871,-1.74599 0.26702,-2.53672c0.06763,-0.41675 0.23517,-1.20757 0.40054,-2.00267c0.11209,-0.53895 0.26702,-1.46863 0.40054,-2.13618c0.13351,-0.66756 0.19939,-1.05188 0.26702,-1.46863c0.02139,-0.13179 0,-0.13351 0.13351,-0.13351c0.40054,0 1.07841,-0.25239 2.13618,-0.40053c0.96258,-0.13482 1.72574,-0.33345 2.40321,-0.40054c1.19576,-0.1184 2.00267,0 2.93725,0c0.40054,0 1.20161,0 2.00267,0c0.40054,0 1.06809,0 1.20161,0c0.13351,0 0.26702,0 0.40054,0c0.40054,0 0.53404,0 0.80106,0c0.26703,0 0.53405,0 0.93459,0c0.53404,0 1.06808,0 1.46862,0c0.53405,0 0.80107,0 0.93459,0c0.13351,0 0.26702,0 0.40053,0c0,0 -0.26778,0.12618 -1.60213,0.26702c-1.20232,0.12691 -2.93725,0.40054 -4.00534,0.40054c-1.73565,0 -2.67023,0 -3.87183,0c-1.06809,0 -2.00864,0.10165 -2.80373,0.26702c-1.0779,0.22419 -1.85685,0.6003 -2.40321,0.66756c-0.26503,0.03263 -0.79007,0.45218 -0.93459,0.80107c-0.05109,0.12335 -0.13351,0.26702 -0.13351,0.26702c0,0.13351 -0.10361,0.2842 -0.26702,0.53405c-0.57075,0.87269 -0.97906,1.12985 -1.33512,2.26969c-0.28149,0.90113 -0.3336,1.72853 -0.40053,2.67023c-0.02839,0.39953 -0.2001,0.92747 -0.26703,1.86916c-0.05679,0.79906 0,1.73565 0,2.93725c0,0.53405 0.20004,1.72737 0.26703,2.53672c0.06607,0.79834 0.13351,2.13618 0.13351,2.93725c0,1.06809 -0.05986,2.93874 0,4.13885c0.06684,1.34011 0.06689,2.93102 0,4.00534c-0.05807,0.93278 -0.33327,1.85685 -0.40054,2.40321c-0.04894,0.39753 0.02839,0.93559 0,1.33511c-0.06693,0.9417 -0.13351,1.33511 -0.13351,2.00267c0,0.40054 0,0.53405 0,0.66756c0,0.13351 0,0.13351 0,0.26702c0,0 0,0.13351 0,0.13351c0,0.53405 0.13351,0.93458 0.13351,1.2016l0,0.13351l0,0.13351l0,0.13351" stroke-width="3"/>
  <path fill="none" stroke="#5fbf00" stroke-width="3" id="svg_13" d="m16.06974,26.78796c-0.53405,0.13351 -0.82933,0.22886 -1.2016,0.53405c-1.16814,0.95765 -1.49403,1.58632 -1.73565,2.00267c-0.14985,0.25821 -0.13351,0.26702 -0.13351,0.40053c0,0.13351 0.1173,0.19939 0.53405,0.26702c0.65894,0.10693 1.06809,0 1.46863,0c0.13351,0 0.13351,0 0.26702,0c0.13351,0 0.15662,0.01966 0.26702,-0.13351c0.17456,-0.24219 0.26702,-0.66756 0.53405,-1.2016c0.13351,-0.26702 0.26702,-0.40053 0.26702,-0.53405c0,-0.13351 0,-0.26702 0,-0.40053c0,0 0.05109,-0.14367 0,-0.26702c-0.07226,-0.17444 -0.45748,-0.62061 -1.2016,-1.2016c-0.61362,-0.4791 -1.60214,-0.80107 -1.86916,-0.80107c-0.66756,0 -1.91139,0.20349 -2.67023,1.73565c-0.73295,1.47988 -0.53405,2.53672 -0.53405,3.07076c0,0.53405 0.17133,0.74329 0.40053,0.93458c0.51252,0.42773 1.05818,1.00101 1.73565,1.06809c1.19576,0.1184 2.1517,0.19247 3.33778,0c0.8335,-0.13526 1.4682,-0.55691 2.00267,-1.33512c0.74443,-1.08392 0.88142,-2.15342 0.66756,-3.4713c-0.13526,-0.8335 -0.51196,-1.36639 -1.06809,-1.73565c-0.4586,-0.3045 -1.75327,-0.16618 -2.26969,0.13351c-0.41635,0.24162 -0.95769,0.64789 -1.06809,0.80107c-0.17456,0.24219 -0.26702,0.80107 -0.26702,1.2016c0,0.26702 0.13351,0.40054 0.26702,0.40054l0.13351,0l0.13351,0l0,0"/>
  <path fill="none" stroke="#5fbf00" stroke-width="3" id="svg_14" d="m33.82676,25.18582c0,0.26702 0.01547,0.52922 0.13351,0.93458c0.15391,0.52853 0.13351,0.80107 0.53405,1.2016c0.26702,0.26702 0.53404,0.40053 0.53404,0.40053c0.26702,0.13351 0.66756,0.13351 0.80107,0.13351c0.13351,0 0.42537,0.04105 0.66756,-0.13351c0.30635,-0.2208 0.66756,-0.93458 1.06809,-1.73565c0.26702,-0.53405 0.40053,-0.93458 0.40053,-1.2016c0,0 0.05109,-0.14367 0,-0.26702c-0.07225,-0.17444 -0.26702,-0.26702 -0.40053,-0.40053c-0.40054,-0.40054 -1.06809,-0.53405 -1.2016,-0.53405c-0.26702,0 -0.26702,0 -0.40054,0c-0.26702,0 -0.38953,0.05165 -0.53405,0.40053c-0.10218,0.2467 -0.19476,0.73047 -0.40054,1.60214c-0.09203,0.38982 -0.13351,0.66756 -0.13351,0.80107c0,0.13351 -0.15327,0.43102 0,0.80107c0.07225,0.17444 0.0391,0.30613 0.13351,0.40054c0.09441,0.09441 0.66756,0.26702 1.33512,0.26702c0.66756,0 1.3765,-0.17857 1.73565,-0.40053c0.32123,-0.19853 0.86233,-0.76014 0.93458,-0.93458c0.56202,-1.35683 -0.49843,-2.43428 -1.2016,-3.20427c-0.76395,-0.83655 -1.07882,-1.38537 -1.60214,-1.60214c-0.37004,-0.15328 -1.12066,-0.10544 -1.73565,0.26702c-1.05287,0.63767 -1.65906,1.50385 -2.00267,2.4032c-0.33694,0.88189 -0.13351,1.2016 -0.13351,1.60214c0,0.13351 0.39499,0.73421 1.60214,0.80107c0.79984,0.0443 1.46862,0.13351 2.26969,0.13351c0.40054,0 0.69517,0.02501 0.93458,-0.26702c0.30519,-0.37227 0.44331,-1.7391 0.40054,-2.00267c-0.06763,-0.41675 -0.30613,-0.70666 -0.40054,-0.80107c-0.47203,-0.47203 -1.4366,0.30699 -1.86916,1.73565c-0.31192,1.03022 -0.13351,1.73565 -0.13351,2.40321c0,0.13351 0,0.26702 0,0.26702c0.13351,0 0.26702,0 0.80107,-0.13351l0.26702,-0.53404l0.13351,-0.13351"/>
  <path stroke-width="3" d="m71.77082,26.45826c0.41666,0 0.83333,-0.20833 1.45833,-0.41667c0.625,-0.20833 1.67527,-0.59317 2.5,-0.83333c0.63254,-0.18419 1.66666,-0.83333 2.49999,-1.45833c0.83334,-0.625 1.65229,-1.09119 2.29166,-1.25c1.22987,-0.30547 1.91644,-0.31924 2.5,-0.625c0.92269,-0.48344 1.49709,-0.97761 1.875,-1.25c0.95605,-0.68909 1.25,-1.04167 1.66666,-1.25c0.83334,-0.41667 1.21328,-0.51797 1.66666,-0.625c0.20277,-0.04787 0.41666,0 0.625,0c0,0 0.32274,-0.19899 1.04166,-0.41667c0.19939,-0.06037 0.625,0 0.83334,0c0.20833,0 0.20833,0 0.41666,0c0.20834,0 0,0 -0.20834,0c-0.62499,0 -0.83333,0 -1.24999,0c-0.41667,0 -1.26672,0.06474 -1.875,0.20833c-0.45338,0.10703 -1.89518,0.75005 -2.91666,1.04167c-1.71162,0.48863 -2.50359,1.02781 -3.33333,1.25c-1.46507,0.39231 -2.03356,0.71165 -2.70834,1.04167c-0.59182,0.28945 -0.93477,0.01677 -1.45833,0.41667c-0.59695,0.45595 -0.67141,0.77583 -1.45834,1.45833c-0.22257,0.19304 -0.87974,0.56749 -1.66666,1.25c-0.22257,0.19304 -0.74704,0.12204 -1.04166,0.41667c-0.14732,0.14731 -0.20834,0.20833 -0.20834,0.20833c-0.20833,0 -0.20833,0 0,0c0,0 0.43533,-0.18163 1.04167,-0.625c1.07681,-0.78739 1.86288,-1.68513 3.12499,-2.5c1.65117,-1.06605 3.16005,-1.7885 4.79166,-2.5c0.85402,-0.37241 1.66666,-0.625 2.5,-0.83333c0.83333,-0.20833 1.24999,-0.41666 2.08333,-0.83333c0.41666,-0.20833 0.625,-0.20833 1.04166,-0.20833c0.20834,0 0.20834,0 0.41667,0c0.20833,0 0.56363,-0.28046 1.04166,-0.625c0.37791,-0.27238 1.39697,-0.69712 1.87499,-1.04167c0.37792,-0.27239 1.04167,-0.41667 1.04167,-0.41667c0.20833,0 0.41666,0 0.625,0l0.20833,0l0,0l0.20834,0" id="svg_1" stroke="#5fbf00" fill="none"/>
 </g>

</svg>