<svg width="100" height="100" xmlns="http://www.w3.org/2000/svg">
 <g>
  <title>Layer 1</title>
  <path d="m54.84849,26.12121c0,0 -0.05981,0.22771 -0.12121,0.60606c-0.29124,1.7947 -0.12122,3.15151 -0.12122,4.48485c0,1.93939 0,3.15151 0,4.72727c0,1.45454 -0.06058,3.14899 -0.12121,5.33333c-0.03027,1.09049 -0.08117,2.18493 -0.24242,4c-0.09714,1.09332 -0.08101,2.30538 -0.24242,4.72727c-0.09706,1.45636 -0.36364,3.75758 -0.48485,5.21212c-0.12121,1.45454 -0.17102,3.51677 -0.24242,5.09091c-0.06067,1.33746 -0.12121,3.27273 -0.12121,4.72727c0,1.33334 0,3.0303 0,4c0,0.9697 0,2.30303 0,3.27273c0,1.21212 0,1.93939 0,2.90909c0,1.33334 0,2.18182 0,3.0303c0,0.9697 0,1.33334 0,2.18182c0,0.36363 0,0.48485 0,0.48485c0,0.12121 0,0.24242 0,0.12121c0,-0.24242 -0.39523,-1.44918 -0.60606,-2.78788c-0.28535,-1.81194 -0.50786,-3.14991 -0.60606,-4.72727c-0.15835,-2.54342 -0.24242,-4.48485 -0.24242,-6.18182c0,-2.42424 -0.02784,-4.00163 0.12121,-6.30303c0.10215,-1.57711 0.01422,-3.2789 0.24242,-6.30303c0.16518,-2.18902 0.13065,-4.13374 0.48485,-6.78788c0.27678,-2.07406 0.81274,-3.96952 1.21212,-7.39394c0.25314,-2.17047 0.16606,-4.7281 0.24242,-8.24242c0.06062,-2.78986 0.12121,-5.69697 0.12121,-7.0303c0,-1.09091 0,-1.09091 0,-1.21212c0,-0.36364 0,-1.45454 0,-2.30303c0,-1.09091 0,-1.69697 0,-1.93939c0,0 -0.08571,-0.15671 0,-0.24242c0.08571,-0.08571 0.17582,0.17582 0.48485,0.48485c0.30903,0.30903 0.68247,0.67429 1.57576,1.21212c0.9288,0.55921 2.07205,0.82391 3.39394,1.45455c0.73388,0.35011 1.9146,1.60439 3.0303,2.54545c1.18655,1.00082 2.60527,2.02942 3.63636,2.66667c0.92223,0.56997 2.80385,1.42666 3.87878,2.06061c0.98498,0.58089 2.52793,1.84717 3.51515,2.42424c1.3112,0.76645 2.06796,0.96098 2.78788,1.57576c0.97984,0.83674 1.88138,1.75925 2.78788,2.54546c1.37355,1.19127 2.18182,1.57576 2.78788,2.18182c1.33334,1.33333 2.27123,2.33181 3.15151,3.27273c1.17111,1.25179 1.86312,1.77524 2.78788,2.78788c0.6384,0.69906 1.05929,1.36229 2.06061,2.42424c0.7056,0.74832 1.29103,1.26459 2.18182,1.93939c0.34837,0.2639 1.09091,0.9697 1.69697,1.57576c0.48485,0.48485 0.92331,0.97892 0.9697,1.09091c0.06561,0.15837 0.72728,0.60606 1.09091,0.9697c0.48485,0.48485 0.85173,0.82064 0.9697,0.84848c0.26379,0.06227 0.27792,0.15671 0.36364,0.24242c0.08571,0.08571 0.07611,0.04668 -0.36364,0.36364c-0.41719,0.30069 -1.36388,1.04795 -2.06061,1.57576c-0.89078,0.6748 -2.0606,1.45454 -2.90909,2.0606c-0.84849,0.60606 -2.32068,1.78955 -3.51515,2.54546c-1.1079,0.70111 -2.93311,1.78168 -4.60606,2.90909c-2.09163,1.40957 -3.23042,2.36694 -4.48486,3.15151c-2.11611,1.32349 -3.49565,1.9668 -4.84848,2.9091c-2.1517,1.49874 -3.49719,2.21263 -4.72727,2.90909c-1.79314,1.01526 -3.29076,1.7898 -5.21212,3.0303c-1.10149,0.71116 -2.53777,1.48293 -4.72728,2.06061c-0.96646,0.255 -1.79308,0.57129 -2.90909,0.84848c-0.71556,0.17773 -1.33333,0.24242 -1.93939,0.24242c-0.12121,0 -0.24242,0 -0.36364,0c-0.12121,0 -0.12121,0 -0.48485,0.24242c-0.36364,0.24242 -0.60606,0.36364 -0.9697,0.48485c0,0 -0.12121,0.12122 -0.12121,0.24242c0,0.12122 -0.35381,0.37074 -0.9697,1.21213c-0.35798,0.48904 -0.63306,0.93623 -1.09091,1.33333c-0.1295,0.11232 -0.24243,0.36364 -0.12121,0.36364c0.12122,0 -0.05889,-0.59322 -0.24243,-1.57576c-0.35888,-1.92125 -0.24242,-3.75758 -0.24242,-5.45454c0,-1.69697 0.14708,-2.91052 0,-5.33334c-0.10309,-1.69817 -0.50694,-3.76846 -0.84848,-6.42424c-0.1881,-1.46257 -0.36364,-2.90909 -0.36364,-5.45455c0,-1.93939 0.12523,-4.48457 0.24242,-6.18182c0.12552,-1.81789 0.66184,-4.47828 0.84848,-6.30303c0.17311,-1.69246 0.12121,-4.36364 0.12121,-6.66666c0,-2.18182 0.12968,-5.8169 0.36364,-7.39394c0.12577,-0.84782 0.07679,-1.09363 0.12122,-1.45455c0.06106,-0.49603 0.303,-1.57273 0.36364,-3.39394c0.06454,-1.93832 -0.0769,-4.97144 0,-6.66667c0.06067,-1.33746 0.12121,-2.66667 0.12121,-2.90909c0,-0.24242 0,-0.36364 0,-0.48485c0,0 0.34014,-0.85217 0.48485,-1.69697c0.2087,-1.21838 0.42345,-1.68225 0.48485,-2.06061c0.01942,-0.11965 0.11597,-0.11852 0.24242,0.12121c0.58222,1.10382 0.97504,2.25478 1.69697,3.27273c0.84435,1.19058 1.86684,1.77258 2.54546,2.54546c1.31169,1.49389 1.95593,2.77258 3.63636,4.60606c1.10184,1.20219 1.94458,2.4276 3.75758,4c1.37355,1.19128 2.95444,2.28208 4.84849,3.63636c1.28558,0.91922 2.64465,1.61332 4.48485,2.66667c1.31812,0.7545 3.17211,2.03062 4.24242,2.78788c0.9895,0.70008 2.19794,1.55069 3.15151,2.18182c1.23382,0.81661 2.98419,2.47875 4.12122,3.39394c1.28432,1.03374 2.48265,1.60208 3.51515,2.30303c1.42532,0.96763 2.18182,1.69697 2.90909,2.30303c1.45454,1.21212 2.31328,1.9213 3.39394,2.54545c0.61204,0.35349 1.03893,0.78415 1.69698,1.33334c1.47141,1.22801 2.47321,1.74685 3.0303,2.18182c0.13511,0.10549 0.39605,0.0741 0.36363,0.24242c-0.17458,0.90647 -1.52337,0.61329 -2.78788,1.45454c-1.2924,0.85981 -2.98876,2.36844 -4.48485,3.27273c-1.2998,0.78564 -3.12698,1.85435 -4.36363,2.66667c-1.54643,1.01581 -3.38186,2.44571 -5.09091,3.39394c-1.56494,0.86828 -3.88211,1.8111 -5.69697,2.66666c-2.55016,1.20219 -3.95806,2.25164 -5.33334,3.0303c-2.12272,1.20186 -3.75414,1.70239 -5.09091,2.54546c-1.93445,1.21999 -3.11718,2.11494 -4.24242,2.78788c-1.76848,1.05762 -3.35361,1.33398 -4.84849,2.42424c-0.90289,0.65851 -1.52361,1.50965 -2.54545,2.42425c-0.57832,0.51762 -1.44178,1.11481 -2.78788,1.81818c-0.72066,0.37656 -1.66503,1.00288 -2.54546,1.81818c-0.81995,0.7593 -2.05161,1.75728 -2.66666,1.81818c-0.12062,0.01195 -0.21458,0.11797 -0.24242,0c-0.06227,-0.26379 -0.20476,-0.37337 -0.12121,-0.72727c0.18682,-0.79137 0.84848,-1.33334 1.33333,-1.81818c0.60606,-0.60606 0.72727,-0.72727 0.84848,-0.84849c0.12121,-0.12121 0.24242,-0.12121 0.36364,-0.36363c0,0 0,0 0,-0.24242c0,-0.48485 0.30282,-1.08339 0.36364,-1.81818c0.02,-0.2416 0,-0.36364 0,-0.48485c0,-0.12122 0,-0.60606 0,-1.09091c0,-0.36363 0,-0.84848 0,-1.21212c0,-0.12121 0,-0.24242 0,-0.48485c0,-0.12121 0,-0.12121 0,-0.24242c0,-0.12122 -0.36141,-0.69236 -0.48485,-1.33334c-0.22922,-1.19025 -0.06045,-1.93294 -0.12121,-2.78788c-0.06874,-0.96725 -0.16995,-2.17136 -0.48485,-3.75758c-0.14357,-0.72319 -0.30291,-1.44888 -0.36364,-2.42424c-0.03013,-0.48391 0,-0.9697 -0.12121,-1.81818c-0.12121,-0.84848 -0.24242,-1.69697 -0.24242,-2.54546c0,-0.36364 0,-0.72727 0,-1.45454c0,-0.84848 0,-2.30303 0,-3.39394c0,-0.72727 0.06874,-1.82063 0,-2.78788c-0.06076,-0.85494 -0.12121,-2.18182 -0.12121,-2.78788c0,-0.84849 -0.04093,-1.46257 0.12121,-2.18182c0.19406,-0.86084 0.3248,-1.94253 0.36364,-2.18182c0.0614,-0.37836 0.12121,-0.72727 0.12121,-0.84848c0,-0.12121 0,-0.24242 0,-0.36364c0,-0.24242 0,-0.24242 0,-0.48485c0,-0.12121 0,-0.24242 0,-0.24242c0,-0.12121 -0.12121,0 -0.12121,0c0,0 0,0.12121 0,0.12121c0,0.12121 0.08571,0.15672 0,0.24242c-0.17142,0.17142 -0.45419,-0.196 -0.9697,-0.36364c-0.70117,-0.22801 -1.45455,-0.72727 -1.69697,-0.84848c-0.24242,-0.12121 -0.49897,-0.33877 -0.72727,-0.48485c-0.65377,-0.4183 -1.22585,-1.19213 -1.93939,-1.69697c-0.98951,-0.70009 -1.72551,-1.3013 -2.54546,-2.0606c-0.75465,-0.69883 -1.66569,-1.72628 -3.0303,-3.15152c-0.7113,-0.7429 -1.38621,-1.38663 -2.18182,-2.06061c-0.2616,-0.2216 -0.84849,-0.72727 -1.81818,-1.69697c-0.72727,-0.72727 -1.40451,-1.26703 -2.30303,-2.30303c-0.39709,-0.45785 -1.24021,-1.18528 -1.81818,-1.81818c-0.63839,-0.69906 -1.69697,-1.93939 -2.42424,-2.66667c-0.72727,-0.72727 -1.45455,-1.45455 -2.18182,-2.18182c-0.84849,-0.84848 -1.37995,-1.73933 -1.81818,-2.42424c-0.8366,-1.30754 -1.57576,-2.06061 -2.18182,-2.66667c-0.9697,-0.9697 -1.68033,-1.94912 -2.18182,-2.78788c-0.58681,-0.98146 -0.95185,-1.59674 -1.09091,-1.69697c-0.43975,-0.31696 -0.62055,-0.21478 -1.33333,-0.60606c-0.61957,-0.34011 -1.96255,-1.18095 -2.78788,-1.81818c-0.74934,-0.57856 -1.47709,-1.29607 -1.69697,-1.45455c-0.13906,-0.10023 -0.27793,-0.44935 -0.36364,-0.36364c-0.08571,0.08571 -0.11477,0.36496 -0.24242,0.9697c-0.23081,1.09343 -0.56236,2.53327 -0.84848,4.60606c-0.16657,1.20672 -0.22749,2.54717 -0.48485,4.72727c-0.22914,1.94101 -0.34013,4.00103 -0.48485,7.0303c-0.10428,2.18269 -0.36364,4.9697 -0.60606,6.90909c-0.24242,1.9394 -0.54543,5.20945 -0.60606,7.27273c-0.06409,2.18088 -0.05981,5.33867 0.12121,7.0303c0.0912,0.85223 0.14906,2.06385 0.12121,2.18182c-0.06227,0.26379 -0.19975,1.21631 -0.36364,2.66667c-0.19247,1.70336 -0.41771,4.97446 -0.60606,7.15152c-0.17884,2.06709 -0.52949,4.74213 -0.84848,6.18182c-0.48985,2.21081 -0.92672,4.11186 -1.09091,5.81818c-0.23248,2.41611 -0.12121,3.75758 -0.12121,4.84848c0,1.21212 -0.08593,2.06366 0,3.27273c0.06076,0.85494 0.12121,1.69697 0.12121,2.54546c0,0.60606 0,0.84849 0,1.21212c0,0.12122 0.06045,0.23597 0.12121,1.09091c0.04296,0.60453 0.12121,1.21212 0.12121,1.81818c0,0.12122 0,0.12122 0,0.12122c0.12121,0 0.15117,0.04707 0.36364,-0.12122c0.74212,-0.58778 1.15978,-1.40459 2.78788,-2.54545c1.29428,-0.90694 2.47993,-1.77592 4.36364,-3.27273c1.29078,-1.02566 2.94949,-1.89094 4.84848,-3.51515c1.23928,-1.05996 2.89081,-2.32948 3.75758,-2.9091c0.95056,-0.63566 2.54545,-1.57575 3.87879,-2.42424c1.33333,-0.84849 3.04437,-2.04086 4.24242,-2.90909c1.96297,-1.42257 3.1002,-2.47978 4.12121,-3.63637c0.91463,-1.03607 2.08938,-2.39244 3.0303,-3.27272c1.7525,-1.63956 2.67072,-2.785 3.27273,-3.63636c0.85425,-1.20807 1.46431,-2.05234 2.18182,-2.90909c1.1061,-1.32076 1.87157,-2.1321 2.54546,-2.90909c0.39709,-0.45785 0.77602,-1.03558 1.33333,-1.57576c0.43519,-0.4218 0.76861,-0.80938 1.45455,-1.57576c0.51762,-0.57832 1.01659,-1.32335 1.33333,-1.45454c0.11198,-0.04639 0.34422,-0.00156 0.36364,-0.12121c0.0614,-0.37836 -0.76407,-0.16637 -1.57576,-0.60606c-0.76855,-0.41632 -1.89497,-1.38696 -2.90909,-2.18182c-1.16451,-0.91273 -3.0303,-2.30303 -4.24242,-3.51515c-1.21212,-1.21212 -2.60999,-2.73446 -3.75758,-3.63636c-1.50686,-1.18426 -2.63504,-2.21077 -3.63636,-3.27273c-1.64639,-1.74608 -2.80946,-2.76941 -3.63636,-3.75757c-0.99618,-1.19045 -1.58426,-2.05301 -2.66667,-3.27273c-0.85525,-0.96374 -1.72509,-2.2818 -2.90909,-3.87879c-0.621,-0.83761 -1.27708,-1.66867 -3.0303,-2.66667c-0.9422,-0.53633 -1.85919,-0.93003 -3.0303,-2.18182c-0.88029,-0.94092 -1.54632,-2.05902 -2.30303,-2.18182c-0.83753,-0.13591 -1.35588,0.03727 -1.57576,-0.12121c-0.13906,-0.10023 -0.90502,-0.51835 -1.69697,-1.09091c-1.32154,-0.95544 -1.9676,-1.66464 -2.66667,-2.30303c-0.6329,-0.57798 -0.72727,-0.72727 -0.84848,-0.84848c-0.12121,-0.12121 -0.32887,-0.16583 -0.48485,0.24242c-0.3059,0.80065 -0.24242,2.06061 -0.24242,3.51515c0,2.06061 0,3.75758 0,5.45455c0,2.42424 -0.11535,4.12383 0,6.66667c0.06067,1.33746 0.38759,2.4214 0.60606,4.36364c0.13616,1.21053 0.28741,2.2976 0.48485,4.12121c0.15711,1.45111 0.49466,3.39219 0.72727,4.72727c0.25311,1.45272 0.5321,2.90408 0.72727,4.9697c0.16004,1.69375 0.12552,3.99968 0.24242,5.57576c0.12585,1.69663 0.24242,3.87879 0.24242,4.84848c0,1.21212 0,3.0303 0,4.24242c0,1.81818 0.10167,3.1554 0,4.48485c-0.12157,1.58966 -0.30298,2.7841 -0.36364,4.24242c-0.0806,1.93772 0.04692,3.0316 0,3.87879c-0.0607,1.09594 -0.12121,1.81818 -0.12121,2.54546c0,0.60606 0.06045,1.20567 0.12121,2.0606c0.04296,0.60454 0,1.09091 0,1.33334c0,0.12122 -0.02962,0.24424 0,0.48485c0.06106,0.49603 0.24242,0.9697 0,0.9697c0,0 -0.53474,0.41261 -0.9697,0.9697c-0.52747,0.67558 -1.42783,1.95322 -1.93939,2.9091c-0.46112,0.8616 -1.09521,1.8793 -1.45455,2.42424c-0.18873,0.28622 -0.36364,0.48485 -0.36364,0.60606c0,0.12121 0,0.12121 0,0.12121c0.24242,-0.24242 0.9697,-0.9697 1.93939,-2.42424c1.45455,-2.18182 2.36663,-4.04604 3.63636,-5.57576c1.97376,-2.37788 3.3715,-3.93731 6.06061,-5.93939c1.61815,-1.20473 3.22948,-2.47446 5.33333,-4.24242c1.18838,-0.99865 2.2539,-2.09965 3.51515,-3.63637c0.81746,-0.99599 1.75404,-2.11776 3.39394,-3.63636c0.88042,-0.8153 1.69686,-1.9506 3.27273,-3.27273c1.13349,-0.95098 2.54546,-1.9394 3.15152,-2.42424c0.60606,-0.48485 1.29988,-1.23912 1.69697,-1.69697c0.33694,-0.3885 0.75293,-1.05626 1.09091,-1.33334c0.53026,-0.43471 1.46559,-1.30857 2.30303,-1.69697c0.98352,-0.45615 1.33334,-0.60606 1.45455,-0.60606c0.12121,0 0.2073,-0.0052 0.24242,-0.12121c0.12665,-0.41829 0.20543,-0.73306 0.24242,-0.84848c0.31821,-0.99297 1.63904,-1.68677 3.75758,-2.78788c1.25426,-0.6519 2.16482,-1.23828 3.27272,-1.9394c0.59724,-0.37795 0.98815,-0.51329 1.21212,-0.60606c0.15837,-0.0656 0.24242,-0.12121 0.24242,-0.12121c0.12121,0 -0.01685,0.10511 -0.36364,0.48485c-0.63839,0.69907 -1.98336,2.50992 -3.15152,4c-1.76497,2.25135 -2.57621,4.14962 -4,5.9394c-2.34779,2.95129 -4.38653,5.05291 -5.9394,6.78788c-2.62944,2.93778 -4.24919,4.71998 -5.81818,6.18182c-2.27143,2.11631 -3.59509,3.30536 -4.84849,4.84849c-0.70456,0.86743 -1.68142,1.60149 -3.27273,2.54546c-0.84049,0.49857 -1.74722,1.07136 -3.27273,2.0606c-1.04707,0.67899 -2.1032,0.99564 -3.27273,1.57576c-0.63317,0.31407 -1.30461,0.7734 -2.06061,1.21212c-0.70327,0.40813 -1.5468,0.8989 -1.93939,1.09091c-0.34433,0.1684 -0.99669,0.33018 -1.45455,0.72727c-0.518,0.44926 -0.78628,0.8026 -1.21212,1.09091c-0.76441,0.51753 -1.72734,0.83534 -2.54545,1.0909c-0.25871,0.08082 -0.72727,0.24242 -0.84848,0.24242c0,0 -0.09985,-0.05894 -0.36364,-0.12121c-0.11797,-0.02785 -0.58886,-1.07688 -0.84848,-3.39394c-0.20291,-1.81088 -0.30301,-4.84641 -0.36364,-7.51515c-0.05505,-2.42361 -0.06062,-7.27091 0,-10.30303c0.05572,-2.78732 0,-6.54545 0,-8.96969c0,-2.30303 -0.00233,-6.66676 0.12121,-9.9394c0.11897,-3.1516 0.26824,-7.63414 0.48485,-10.30303c0.27525,-3.39143 0.6538,-5.32618 0.84848,-6.78788c0.16082,-1.2075 0.24242,-1.57576 0.24242,-1.69697c0,-0.9697 -0.07323,-1.95559 0.36364,-3.75758c0.62374,-2.57278 1.27243,-3.50616 1.33333,-4.12121c0.01194,-0.12062 -0.0325,-0.23682 -0.12121,-0.84849c-0.19216,-1.32497 -0.36364,-2.78788 -0.36364,-5.09091c0,-1.69697 0.30273,-3.02131 0.36364,-3.63636c0.01194,-0.12062 0,-0.24242 0.12121,-0.24242c0,0 0.12121,0 0.12121,0l0.12121,0" id="svg_53" stroke-width="3" stroke="#ffffff" fill="none"/>
 </g>

</svg>