<svg width="50" height="50" xmlns="http://www.w3.org/2000/svg">
 <g>
  <title>Layer 1</title>
  <path d="m0.81819,18.39394c0,0.12121 -0.01506,0.60653 0,0.84848c0.06072,0.97536 0.30839,1.55963 0.48485,2.42424c0.19542,0.95751 0.24242,1.81818 0.24242,2.78788c0,0.72727 0.0604,1.32582 0.12121,2.06061c0.04999,0.60399 0.12121,1.09091 0.12121,1.81818c0,0.48485 0.12121,0.9697 0.12121,1.69697c0,0.24242 0,0.48485 0,0.48485c0,0.24242 0,0.72727 0,1.21212c0,0.24242 0,0.36364 0,0.48485l0,0.12121l0,0.12121" id="svg_20" stroke-width="3" stroke="#bf0000" fill="none"/>
  <path d="m1.66667,14.87879c0.12121,0.24242 0.21853,0.49984 0.60606,1.09091c0.57172,0.87199 0.86509,1.44648 1.21212,2.18182c0.5095,1.07962 0.66587,1.56104 0.72727,1.93939c0.03883,0.23929 0.12121,0.36364 0.36364,0.84848c0.24242,0.48485 0.48485,0.9697 0.60606,1.33333c0.12121,0.36364 0.47819,1.09335 0.9697,2.42424c0.35878,0.9715 0.54127,1.55613 0.72727,2.18182c0.17612,0.59244 0.33471,1.94481 0.48485,2.66667c0.10177,0.4893 0.07483,1.10013 0.12121,1.21212c0.0656,0.15837 0.48485,0.84849 0.60606,1.21212c0.12121,0.36364 0.24242,0.60606 0.24242,0.60606c0,0.12121 -0.08571,0.15672 0,0.24242c0.08571,0.08571 0.16317,0.08551 0.36364,0.36364c0.31696,0.43975 0.36364,0.72727 0.36364,0.9697c0,0.12121 0,0.24242 0,0.24242c0.12121,-0.12121 0.22395,-0.22777 0.48485,-2.42424c0.20067,-1.68942 0.03576,-3.3952 0.12121,-6.30303c0.06063,-2.06328 0.04679,-4.97113 0.12121,-6.90909c0.06065,-1.57925 0.12121,-3.39394 0.12121,-4.36364c0,-0.84848 0,-1.81818 0,-2.06061c0,-0.24242 0,-0.36364 0,-0.48485c0,0 0,-0.12121 0,-0.48485l0.12121,-0.36364l0,0l0,-0.12121" id="svg_21" stroke-width="3" stroke="#bf0000" fill="none"/>
  <path d="m16.45455,17.66667c-0.12121,0.12121 -0.2634,0.34579 -0.36364,0.48485c-0.31696,0.43975 -0.65443,0.95735 -0.84848,1.81818c-0.32428,1.43851 -0.30541,2.3121 -0.48485,3.27273c-0.09177,0.49127 -0.12121,1.09091 -0.12121,1.81818c0,0.48485 0,0.84849 0,0.9697c0,0.24242 0.08656,0.63172 0.36364,0.9697c0.21736,0.26513 0.71549,0.75445 0.9697,0.84849c0.46873,0.17339 0.9697,0.24242 1.57576,0.24242c0.36364,0 0.84163,-0.01791 1.45454,-0.24242c0.35992,-0.13184 1.1269,-0.57894 1.57576,-1.21212c0.66132,-0.93289 0.94165,-1.40763 1.21212,-2.06061c0.38251,-0.92346 0.38158,-1.6946 0.48485,-2.54545c0.14678,-1.20929 0.12121,-2.06061 0.12121,-2.90909c0,-0.84848 -0.19148,-1.47356 -0.48485,-2.18182c-0.20744,-0.50081 -0.3831,-1.06095 -1.33333,-1.45455c-0.33596,-0.13916 -0.72727,-0.12121 -1.21212,-0.12121c-0.24242,0 -0.48485,0 -0.72727,0c-0.24242,0 -0.68128,-0.08028 -1.33333,0.60606c-0.41743,0.43939 -0.60606,0.72727 -0.60606,0.84848l-0.12121,0.12121l0,0.12121l0,0" id="svg_22" stroke-width="3" stroke="#bf0000" fill="none"/>
  <path d="m35.12122,11.48485c-0.12121,0 -0.24242,0 -0.72727,0c-0.24242,0 -0.83252,0.15619 -1.33334,0.36364c-0.35413,0.14668 -0.99276,0.5917 -1.21212,0.9697c-0.13604,0.23442 -0.2891,0.52994 -0.60606,0.9697c-0.30069,0.41719 -0.87201,1.0774 -1.21212,1.69697c-0.5217,0.95038 -0.69068,1.58281 -0.84848,2.30303c-0.2958,1.35001 -0.46877,2.06306 -0.60606,2.90909c-0.21708,1.33769 -0.24242,2.42424 -0.24242,3.51515c0,1.33333 -0.13591,1.95035 0,2.78788c0.0614,0.37836 0.47758,0.77277 0.84849,1.45455c0.18318,0.3367 0.40821,0.67442 0.84848,1.09091c0.31749,0.30034 0.61107,0.46633 1.09091,0.60606c0.36802,0.10717 0.72727,0.12121 1.21212,0.12121c0.48485,0 1.48291,-0.42339 2.06061,-0.72727c0.38679,-0.20346 0.87518,-0.82362 1.21212,-1.21212c0.39709,-0.45785 0.59938,-1.21558 0.72727,-1.45455c0.46112,-0.86161 0.66587,-1.31861 0.72727,-1.69697c0.1165,-0.71788 0.12121,-1.33333 0.12121,-1.57576c0,-0.72727 0,-1.09091 0,-1.57576c0,-0.24242 -0.07483,-0.61529 -0.12121,-0.72727c-0.1968,-0.47511 -0.60606,-0.60606 -0.72727,-0.72727c-0.24242,-0.24242 -0.48485,-0.24242 -0.9697,-0.24242c-0.24242,0 -0.36364,0 -0.48485,0c-0.12121,0 -0.24242,0 -0.24242,0c-0.12121,0 -0.24242,0 -0.36364,0c0,0 -0.24242,-0.12121 -0.24242,0c0,0.24242 0.48485,0 0.72727,0c0.60606,0 0.9697,-0.12121 1.57576,-0.12121c0.24242,0 0.48485,0 0.72727,0c0.12121,0 0.15672,-0.08571 0.24242,0c0.08571,0.08571 0.11578,0.18777 0.24243,0.60606c0.1405,0.46404 0.12121,1.69697 0.12121,2.42424c0,0.84849 -0.01608,2.06306 0.12121,2.90909c0.21708,1.33769 0.49229,2.18079 0.60606,3.0303c0.12971,0.9686 0.12121,1.45455 0.12121,1.81818c0,0.12121 0,0.24242 0,0.36364l0,0.12121" id="svg_23" stroke-width="3" stroke="#bf0000" fill="none"/>
  <path d="m44.57576,12.69697c-0.12121,0.24242 -0.56717,0.92737 -0.84848,1.57576c-0.35123,0.80953 -0.4416,1.31184 -0.60606,2.06061c-0.23547,1.07207 -0.24242,1.81818 -0.24242,2.90909c0,0.72727 0,1.57576 0,2.54546c0,0.84848 -0.10367,1.33969 0,2.18182c0.06106,0.49603 0.24242,0.9697 0.48485,1.45454c0.12121,0.24243 0.13097,0.42266 0.36364,0.72727c0.26528,0.34731 0.83376,0.42345 1.21212,0.48485c0.59824,0.09708 1.09091,0 1.33334,-0.12121c0.48485,-0.24242 0.84848,-0.48485 1.21212,-0.9697c0.36364,-0.48485 0.72549,-1.15493 0.9697,-1.81818c0.25475,-0.6919 0.25928,-1.08778 0.36364,-1.69697c0.14471,-0.8448 0.18161,-1.44703 0.24242,-2.18182c0.08998,-1.08719 -0.02514,-1.69137 -0.12121,-2.18182c-0.16476,-0.84111 -0.20987,-1.22144 -0.36364,-1.69697c-0.20083,-0.62109 -0.36364,-0.84848 -0.60606,-1.33333c0,0 -0.16579,-0.43199 -0.60606,-0.84848c-0.31749,-0.30034 -0.44994,-0.48262 -1.09091,-0.60606c-0.4761,-0.09169 -0.84848,0 -1.21212,0c-0.12121,0 -0.60606,0 -0.72727,0l-0.12121,0l-0.24242,0.12121l-0.12121,0" id="svg_24" stroke-width="3" stroke="#bf0000" fill="none"/>
  <path d="m18.87879,37.90909c0,0.12121 0,0.12121 0,0.24242c0,0.24243 0,0.36364 0,0.48485c0,0.12121 0,0.12121 0.12121,0.12121c0,0 0.12121,0 0.12121,0c0.12121,0 0.25215,0.08355 0.60606,0c0.26379,-0.06227 0.36364,-0.12121 0.60606,-0.12121c0.12121,0 0.24242,0 0.24242,0c0.12121,-0.12121 0.24242,-0.12121 0.24242,-0.12121c0.12121,0 0.24242,0 0.36364,0c0,0 0.12121,0 0.24242,-0.12121c0,0 0.09277,-0.13967 0,-0.36364c-0.0656,-0.15837 -0.38462,-0.34579 -0.48485,-0.48485c-0.15848,-0.21988 -0.36364,-0.48485 -0.36364,-0.48485c0,-0.12121 -0.2634,-0.34579 -0.36364,-0.48485c-0.15848,-0.21988 -0.24242,-0.24242 -0.24242,-0.36364c0,-0.12121 0,-0.24242 -0.12121,-0.24242c-0.12121,0 -0.24242,0 -0.24242,0c0,0.12121 -0.21457,0.36688 -0.24242,0.48485c-0.06227,0.26379 -0.12121,0.36364 -0.12121,0.48485c0,0.24242 0,0.36364 0,0.48485c0,0 0,0.12121 0,0.24242c0,0 0,0.12121 0,0.12121c0,0.12121 0,0.12121 0,0.12121c0.24242,0.12121 0.27793,0.15672 0.36364,0.24242c0.08571,0.08571 0.24242,0 0.36364,0c0.24242,0 0.48485,0 0.60606,0c0.12121,0 0.24242,0 0.36364,0l0.12121,0l0,0l0.12121,0" id="svg_34" stroke-width="3" stroke="#bf0000" fill="none"/>
  <path d="m29.42425,34.39394c0,0 0,0.12122 0,0.24243c0,0 0,0.12121 0,0.24242c0,0.12121 0,0.12121 0,0.24242c0,0.12121 0,0.24242 0,0.24242c0,0.12121 0,0.24242 0,0.24242c0,0.12121 0,0.12121 0,0.12121c0.12121,0 0.12121,0 0.24242,0c0,0 0.12121,0 0.24242,0c0.12121,0 0.24242,0 0.36364,0c0.12121,0 0.12121,0 0.48485,0c0.24243,0 0.36364,0 0.48485,0c0,0 0.12121,0 0.24242,0c0,0 0,0 0,-0.12121c0,0 0,-0.12121 0,-0.24242c0,0 0.09277,-0.13966 0,-0.36364c-0.0656,-0.15837 -0.12121,-0.24242 -0.36364,-0.48485c-0.24243,-0.24243 -0.24242,-0.24243 -0.36364,-0.24243c-0.12121,0 -0.24242,0 -0.36364,0c-0.12121,0 -0.24242,0 -0.24242,0c-0.12121,0 -0.23244,0.04689 -0.36364,0.36364c-0.04638,0.11198 -0.12121,0.24242 -0.12121,0.24242c0,0.12121 0,0.24242 0,0.36364c0,0 0,0.12121 0,0.24242c0,0 0,0.12121 0,0.12121c0,0.12121 0,0.12121 0,0.24242c0,0 0,0.12121 0,0.12121c0,0 0.12121,0 0.12121,0c0.12121,0 0.24242,0 0.24242,0c0.12121,0 0.24242,0 0.24242,0c0.12121,0 0.24242,0 0.24242,0c0.12121,0 0.12121,0 0.12121,-0.12121c0,-0.12121 0,-0.12121 0,-0.24242c0,-0.24242 0,-0.36364 -0.12121,-0.48485l0,0" id="svg_35" stroke-width="3" stroke="#bf0000" fill="none"/>
  <path d="m19.24243,49.78788c0,-0.12121 0.13011,-0.23413 0.24242,-0.36364c0.39709,-0.45785 0.64386,-0.82158 1.45454,-1.45454c0.55709,-0.43496 1.06696,-0.77974 1.81818,-1.09091c0.35413,-0.14669 0.572,-0.40124 0.9697,-0.72727c0.33798,-0.27708 0.51595,-0.77805 1.09091,-0.9697c0.22999,-0.07666 0.44212,-0.36031 0.9697,-0.48485c0.23594,-0.0557 0.737,-0.15888 1.09091,-0.24242c0.52758,-0.12454 1.31831,-0.40523 1.93939,-0.60606c0.47553,-0.15376 1.06955,-0.30136 1.33333,-0.36364c0.58985,-0.13924 1.09091,0 1.45455,0c1.09091,0 1.94056,0.08355 2.54546,0.12121c0.97535,0.06072 1.44089,0.28808 2.18182,0.48485c1.19472,0.31728 2.23158,0.21518 3.15152,0.60606c1.05244,0.44719 1.36933,1.0441 1.69697,1.33334c0.20319,0.17937 0.48485,0.36364 0.84849,0.72727c0.24242,0.24242 0.54046,0.20527 0.60606,0.36364c0.04639,0.11198 -0.08571,0.15672 0,0.24242c0.08571,0.08571 0.12121,0.12121 0.24242,0.12121l0,0.12121" id="svg_37" stroke-width="3" stroke="#bf0000" fill="none"/>
 </g>

</svg>