<svg width="100" height="100" xmlns="http://www.w3.org/2000/svg">
 <g>
  <title>Layer 1</title>
  <path d="m16.9091,7.33333c0,0.24242 0,0.36364 0,0.9697c0,0.84848 -0.07556,1.94096 0,3.75758c0.06066,1.45833 0.23239,2.90984 0.36364,4.60606c0.1126,1.45524 0.24242,3.87879 0.24242,5.45455c0,1.93939 0.00463,4.36326 0.12121,5.81818c0.12623,1.57536 0.18178,3.87555 0.24242,5.57576c0.06481,1.81703 0,4.36364 0,6.06061c0,1.81818 0,4.60606 0,6.42424c0,2.66667 0.07645,4.60655 0.12121,6.66667c0.06062,2.78986 0.12121,4.24242 0.12121,4.9697c0,0.60606 -0.04541,1.3339 0,3.15152c0.06063,2.42651 0.38494,4.84703 0.60606,8.24242c0.13414,2.05981 0.12121,3.51515 0.12121,5.57576c0,1.69697 0,3.15151 0,4.9697c0,1.09091 0,2.54546 0,3.27273c0,0.72727 0.06031,1.56676 0.12121,2.18182c0.07166,0.72373 0.1095,1.94144 0.24242,2.66667c0.11142,0.60793 0.14107,1.3303 0.24242,2.0606c0.15089,1.0872 0.18102,1.68226 0.24242,2.06061c0.01942,0.11965 0.03127,0.8369 0.24242,1.45454c0.28545,0.835 0.36364,1.21212 0.48485,1.45454c0,0 0,0.12122 0,0.24242c0,0.12122 0,0.24243 0,0.36364c0,0.12122 0,0.24242 0,0.24242c0.12121,0 0.12121,-0.12121 0.12121,-0.24242c0,-0.24242 -0.12121,-1.57576 -0.12121,-2.78788c0,-1.0909 0.13245,-3.15605 0.24242,-4.48485c0.12163,-1.46958 0.48485,-3.51515 0.84849,-5.09091c0.36364,-1.57575 0.71869,-4.00074 0.84848,-5.45454c0.22739,-2.54684 0.24242,-4.12121 0.24242,-5.81818c0,-2.42424 -0.04213,-4.24288 0,-6.18182c0.06062,-2.78985 0.16157,-4.3642 0.12121,-5.81818c-0.06063,-2.18434 -0.38297,-3.88105 -0.24243,-8.24242c0.12127,-3.76344 0.36364,-7.39394 0.36364,-10.78788c0,-1.09091 -0.00979,-1.33146 -0.12121,-1.9394c-0.13292,-0.72522 -0.22685,-1.5781 -0.72727,-4.84848c-0.35266,-2.30474 -0.71027,-5.69917 -0.9697,-7.63636c-0.22753,-1.69903 -0.29474,-4.12754 -0.48485,-5.81818c-0.17815,-1.58431 -0.54821,-3.88962 -0.84848,-5.33333c-0.40707,-1.9572 -0.60606,-3.27273 -0.60606,-4.24242c0,-1.21212 0,-1.81818 0,-1.93939c0,0 0.05561,-0.15837 0.12121,0c0.18554,0.44794 0.18179,2.90625 0.24242,4.84848c0.07565,2.42306 -0.05192,6.30349 0,9.21212c0.06062,3.39556 0.16974,8.728 0.24242,12.36364c0.06062,3.03212 0.67721,6.89898 0.9697,9.21212c0.32076,2.53677 0.74663,5.81713 0.84849,7.87879c0.14966,3.02903 0.12121,5.21212 0.12121,7.15152c0,3.51515 0.08968,5.45677 0.24242,7.39394c0.20099,2.54906 0.40789,4.12904 0.60606,5.69698c0.26237,2.07593 0.59621,2.66813 0.72727,3.51515c0.11275,0.72863 0.69637,2.67457 1.45454,5.57575c1.0483,4.01138 1.57576,6.18182 1.81818,7.63637c0.24243,1.45454 0.3982,2.42486 0.36364,3.39394c-0.06064,1.70021 -0.1817,2.53979 -0.24242,3.51515c-0.0226,0.36294 0,0.48485 0,0.48485c0,0.12122 -0.18437,0.03494 -0.36364,-0.36363c-0.97685,-2.17188 -0.92587,-4.36636 -1.09091,-6.66667c-0.28742,-4.0062 -0.68622,-7.02951 -0.60606,-12.24242c0.06905,-4.49087 0.54034,-8.96603 0.9697,-15.87879c0.27843,-4.48276 0.39425,-8.73597 1.09091,-15.51515c0.5364,-5.21975 2.57215,-11.51856 1.57576,-14.90909c-0.21883,-0.74465 -0.91742,-1.42821 -1.21212,-2.30303c-0.9573,-2.84171 -1.38164,-4.59322 -1.93939,-6.78788c-0.39833,-1.56735 -0.85624,-3.24882 -1.33333,-6.18182c-0.33312,-2.0479 -0.52964,-3.42246 -0.9697,-4.48485c-0.10372,-0.25041 -0.18167,-0.72081 -0.24243,-1.57576c-0.06015,-0.84635 0,-1.93939 0,-2.30303c0,-0.12121 0,-0.24242 0,-0.24242c0,-0.12121 -0.05924,0.00363 0,0.48485c0.06106,0.49603 0.12121,2.30303 0.12121,4.24242c0,1.81818 0.11842,5.69723 0.36364,8.36364c0.47938,5.21263 0.58965,9.11124 1.21212,12.84849c0.89438,5.36979 1.68307,8.72972 2.18182,11.51515c0.8255,4.61024 1.08316,6.90981 1.33333,9.57576c0.35271,3.75862 0.80631,6.41643 1.09091,9.69697c0.16795,1.93591 0.07016,3.4187 0.36364,4.84849c0.15414,0.75095 0.32921,1.07278 0.36364,1.45454c0.07697,0.85363 -0.12121,1.93939 -0.12121,3.87878c0,2.54546 0,5.69698 0,7.63637c0,1.93939 0,4.48485 0,5.93939c0,1.09091 0,2.30303 0,2.90909c0,0.9697 0,1.57576 0,2.06061c0,0.24242 0,0.24242 0,0.36364l0,0.12121l0,0" id="svg_57" stroke-width="3" stroke="#ff7f00" fill="none"/>
  <path d="m70.36364,7.33333c-0.12121,0.12121 -0.12121,0.36364 -0.12121,1.21212c0,1.81818 0.11173,3.39483 0.24242,4.72727c0.22605,2.3047 0.42418,3.87466 0.48485,5.21212c0.11535,2.54284 0.12121,4.24243 0.12121,6.30303c0,1.45454 0.03558,3.15329 0.12122,5.21212c0.06065,1.45833 0.1818,3.14925 0.24242,5.57576c0.04541,1.81761 0,3.63636 0,6.0606c0,1.9394 -0.06838,4.61192 0.12121,6.42424c0.08918,0.85245 0.36364,2.0606 0.36364,2.78788c0,0.72727 0.05056,2.5556 0.36364,4.48485c0.39601,2.44033 1.33992,6.39435 1.81818,8.72727c0.66442,3.24104 0.78786,5.20945 0.84849,7.27273c0.08189,2.78667 0,4.48485 0,6.06061c0,2.18182 0,3.75758 0,5.33333c0,1.69698 -0.05272,2.42589 0,3.27273c0.06072,0.97536 0.42409,1.81172 0.48485,2.66667c0.02578,0.36272 -0.05569,0.49133 0,0.72727c0.12454,0.52757 0.36363,1.21212 0.36363,1.69697c0,0.12121 0,0.24242 0,0.24242c0,0.12122 0,0.24242 0,0.24242c0.12122,0.24242 0.1018,0.48641 0.12122,0.60606c0.0614,0.37836 0,0.72727 0.12122,0.72727c0.12122,0 0,-0.36364 -0.36364,-1.81818c-0.48485,-1.93939 -1.04073,-3.86629 -1.45454,-6.42424c-0.58587,-3.62147 -0.76682,-6.30096 -0.9697,-10.54546c-0.15058,-3.15025 -0.43053,-7.02013 -0.9697,-10.78788c-0.27687,-1.93478 -0.65217,-3.87482 -0.84849,-6.42424c-0.15849,-2.05807 -0.34476,-6.42521 -0.48485,-8.9697c-0.10683,-1.94024 -0.30294,-4.3586 -0.36364,-5.45455c-0.06033,-1.08924 0.08239,-3.39716 0.24242,-5.09091c0.19518,-2.06562 0.24639,-4.84793 0.36364,-5.69697c0.25092,-1.81703 0.30291,-2.41858 0.36363,-3.39394c0.11298,-1.81467 -0.20724,-4.11378 -0.36363,-6.42424c-0.27026,-3.9927 -0.34367,-6.1838 -0.60606,-8.72727c-0.11264,-1.09183 -0.25224,-1.93765 -0.48485,-3.27273c-0.12656,-0.72636 -0.18152,-1.32434 -0.24242,-1.93939c-0.02389,-0.24124 0,-0.24242 0,-0.24242c0.24242,0.24242 0.85149,1.16411 1.45454,2.90909c0.61465,1.7785 1.31767,5.70115 1.9394,8c0.59119,2.18589 1.58455,5.43213 1.93939,7.87879c0.57648,3.97491 0.66664,6.66427 0.72727,8.9697c0.07648,2.90808 0,4.24242 0,5.45454c0,1.93939 -0.01495,3.39553 0.12122,4.60606c0.21847,1.94224 0.39367,3.39081 0.60606,5.57576c0.14121,1.45274 0.21923,3.15292 0.36364,5.33333c0.10445,1.57696 0.41,3.14092 0.9697,5.69697c0.39661,1.81128 0.87908,3.62739 1.57575,6.06061c0.38041,1.32864 0.70694,2.31005 0.60606,3.0303c-0.1224,0.87391 -0.51488,3.63324 -0.72727,5.81818c-0.28242,2.90549 -0.07764,7.5117 0.12121,10.30303c0.15528,2.17966 0.13924,4.72876 0,6.30303c-0.10733,1.21342 -0.24242,2.78788 -0.24242,3.87878c0,0.9697 0,2.18182 0,2.42425c0,0.24242 0,0.36363 0,0.24242c0,-0.24242 -0.07867,-1.3214 -0.24242,-2.66667c-0.23481,-1.92894 -0.32604,-6.06205 -0.48485,-9.69697c-0.19604,-4.48711 -0.8484,-10.17533 -0.9697,-13.57576c-0.13394,-3.75519 0.39761,-11.02876 0.60606,-16c0.28963,-6.90727 0.72719,-10.66018 0.84848,-14.0606c0.12098,-3.39178 0.24371,-4.99445 0,-6.18182c-0.18561,-0.90427 -0.69214,-1.82433 -1.0909,-4c-0.44569,-2.43174 -0.69147,-4.85266 -1.09091,-8.12121c-0.2225,-1.82073 -0.36363,-3.51515 -0.36363,-5.69697c0,-1.81818 -0.06058,-3.39091 -0.12122,-5.21212c-0.02824,-0.84801 -0.00746,-2.4251 0.12122,-3.51515c0.11457,-0.9705 0.12121,-1.57576 0.12121,-1.69697c0,-0.12121 0,-0.48485 0,-0.72727c0,-0.24242 0.06903,-0.62218 0.24242,-1.09091c0.18807,-0.50841 0.27478,-1.09636 0.36364,-1.81818c0.06106,-0.49603 0.12121,-0.60606 0.12121,-0.24242c0,0.36364 -0.01198,1.69555 -0.12121,2.66667c-0.13616,1.21053 -0.55145,3.75083 -0.72727,5.81818c-0.19544,2.29792 -0.0961,6.06224 -0.24242,8.12121c-0.20693,2.91183 -0.44556,5.08336 -0.60606,7.27273c-0.2483,3.38702 -0.13883,5.21384 0,6.54546c0.21516,2.06363 0.56165,3.26282 0.72727,4.84848c0.22701,2.17336 0.30298,3.51137 0.36364,4.9697c0.10579,2.54325 -0.30301,4.11854 -0.36364,6.18182c-0.03204,1.09044 0,1.93939 0,3.15152c0,0.60606 0,0.84848 0,0.9697c0,0.12121 -0.19506,0.70273 -0.36363,1.33333c-0.44268,1.65606 -0.5923,3.25451 -0.84849,5.09091c-0.42003,3.01083 -0.32498,4.85431 -0.12122,7.15151c0.08634,0.97342 0.07854,2.0648 0.24242,3.51515c0.09624,0.85168 0.24242,1.57576 0.24242,1.93939c0,0.12122 -0.03513,0.24763 0,0.36364c0.12665,0.41829 0.3493,0.73055 0.60606,1.81818c0.11482,0.4864 0.10327,1.2398 0.24242,1.57575c0.06561,0.15838 0.12122,0.24242 0.12122,0.24242l0,0.12122l0,0.12122" id="svg_58" stroke-width="3" stroke="#ff7f00" fill="none"/>
 </g>

</svg>