<svg width="100" height="100" xmlns="http://www.w3.org/2000/svg">
 <g>
  <title>Layer 1</title>
  <path d="m9.27273,4.06061c0,0 0,0.12121 0,0.24242c0,0 0,0.12121 0,0.24242c0,0.24242 0,0.48485 0,0.9697c0,0.48485 0.05981,1.1974 0.12121,1.57576c0.03883,0.23929 0,0.36364 0,0.48485c0,0 0,0.12121 0,0.36364c0,0 0.24242,0.60606 0.36364,0.9697c0.12121,0.36364 0.1018,0.72884 0.12121,0.84848c0.0614,0.37836 0.20221,0.8496 0.24242,1.57576c0.0607,1.09594 0.12121,1.69697 0.12121,1.81818c0,0.60606 -0.07532,1.09325 0,2.30303c0.06072,0.97535 0.12121,1.81818 0.12121,2.90909c0,0.60606 0,1.33333 0,2.54546c0,0.9697 -0.06055,1.93561 -0.12121,3.39394c-0.03526,0.84775 -0.06055,1.8144 -0.12121,3.27273c-0.04534,1.08997 -0.12121,2.42424 -0.12121,3.27273c0,0.9697 -0.06874,2.30547 0,3.27273c0.06076,0.85494 0.20056,1.9402 0.24242,3.0303c0.06065,1.57925 0.20986,2.66729 0.24242,3.51515c0.06065,1.57925 0.11374,2.54631 0.24242,3.63636c0.11457,0.9705 0.12121,1.93939 0.12121,2.78788c0,0.9697 0.01065,3.87806 0.12121,5.57576c0.13414,2.05981 0.12121,3.27273 0.12121,4.48485c0,1.81818 0,2.90909 0,3.51515c0,1.21212 -0.12121,2.18182 -0.12121,3.87879c0,0.84849 0,1.57576 0,2.90909c0,0.9697 0.06056,2.05711 0.12121,3.63637c0.02791,0.72674 -0.09452,1.57912 0,2.90909c0.06076,0.85494 0.12121,1.69697 0.12121,2.54546c0,0.48485 0,1.09091 0,1.57576c0,0.72727 0.06045,1.81173 0.12121,2.66666c0.04296,0.60454 0.12121,1.57576 0.12121,1.93939c0,0.60606 0.07895,1.57681 0.12121,2.42425c0.06068,1.21665 0.20243,1.81983 0.24242,2.30303c0.06081,0.73479 0.12121,1.33333 0.12121,2.18182c0,1.0909 0,1.69697 0,1.81818c0,0.24242 -0.13916,0.39131 0,0.72727c0.0656,0.15837 0.12121,0.24242 0.12121,0.36363c0,0.12122 -0.02785,0.12446 0,0.24242c0.06227,0.26379 0.30288,0.59961 0.36364,1.45454c0.02578,0.36272 0,0.48485 0,0.60606c0,0.12121 0,0.24242 0,0.24242c0,0.12122 0.12446,0.14906 0.24242,0.12122c0.52758,-0.12455 0.96586,-0.49132 1.57576,-0.84849c0.84328,-0.49384 1.58705,-0.82384 2.66667,-1.33334c0.73534,-0.34702 1.35453,-0.67732 2.54545,-1.21212c0.74175,-0.33309 1.83702,-0.81182 3.51515,-1.69697c1.10382,-0.58222 2.12648,-1.54794 4.12121,-2.66666c1.41839,-0.79549 3.14047,-1.8358 4.48485,-2.66667c1.20245,-0.74316 2.79498,-1.56593 3.63636,-2.18182c0.97809,-0.71595 2.44021,-1.54787 3.51515,-2.18182c0.98499,-0.58089 2.34594,-1.92981 3.51515,-2.66667c1.8344,-1.15608 2.94589,-1.62092 3.75758,-2.06061c1.15283,-0.62449 2.09175,-1.4016 3.15152,-2.0606c1.62753,-1.01205 2.45094,-1.6721 2.78788,-2.06061c0.39709,-0.45786 1.09091,-0.84849 2.42424,-1.81818c1.33334,-0.9697 2.65631,-1.84052 4.72728,-2.78788c1.08561,-0.49661 2.14969,-0.77567 3.63636,-1.57575c0.91819,-0.49413 1.89385,-0.97279 3.27273,-1.9394c0.77519,-0.54342 1.94976,-1.3133 2.66666,-1.69697c0.86161,-0.46112 1.56285,-0.87233 2.66666,-1.45454c0.47947,-0.2529 1.21213,-0.9697 1.81818,-1.45454c0.60606,-0.48485 1.44464,-1.22572 1.93939,-1.57576c0.71354,-0.50484 1.53226,-1.03641 2.06061,-1.33333c0.56905,-0.3198 0.97656,-0.47485 1.33334,-0.72727c0.49475,-0.35004 0.85535,-0.59607 1.21212,-0.84849c0.49475,-0.35004 0.572,-0.40124 0.9697,-0.72727c0.33798,-0.27708 0.74681,-0.45411 1.33334,-0.84848c0.50294,-0.33817 0.81442,-0.64366 1.21212,-0.9697c0.33797,-0.27707 0.52035,-0.39914 0.60606,-0.48485c0.08571,-0.08571 0.12121,-0.24242 0.36363,-0.48485c0.12122,-0.12121 0.48485,-0.36364 0.72727,-0.60606c0.24242,-0.24242 0.33502,-0.33502 0.60606,-0.60606c0.27103,-0.27103 0.47181,-0.13499 0.72727,-0.36364c0.57832,-0.51762 0.86946,-0.70942 0.9697,-0.84848c0.15848,-0.21988 0.38618,-0.32637 0.60606,-0.48485c0.27813,-0.20046 0.37643,-0.43064 0.48485,-0.48485c0.54208,-0.27104 0.53561,-0.53562 0.72727,-0.72727c0.19166,-0.19165 0.41053,-0.47486 0.72727,-0.60606c0.11198,-0.04638 0.12121,0 0.24242,0c0.12121,0 0.15671,-0.0355 0.24242,-0.12121c0.08571,-0.08571 -0.10336,-0.14219 -0.24242,-0.24242c-0.43975,-0.31696 -0.82388,-0.51594 -0.9697,-0.60606c-0.65211,-0.40304 -0.94924,-0.63279 -1.57576,-1.09091c-0.35279,-0.25796 -0.82918,-0.64677 -1.81818,-1.09091c-0.59546,-0.2674 -1.36413,-0.52815 -2.06061,-0.84849c-0.64212,-0.29533 -1.10696,-0.56104 -2.18182,-0.9697c-0.86286,-0.32806 -2.25368,-0.98257 -3.0303,-1.57576c-0.68114,-0.52025 -1.8279,-1.4379 -2.66666,-1.9394c-0.98146,-0.58681 -2.42796,-1.45022 -3.27273,-2.18182c-0.97401,-0.84353 -2.55447,-2.04642 -3.51515,-2.66667c-0.73432,-0.4741 -1.71516,-0.94347 -2.42424,-1.45455c-1.12116,-0.80809 -2.20966,-1.40181 -3.39394,-2.06061c-1.61689,-0.89944 -2.67379,-1.44049 -3.87879,-2.06061c-2.07315,-1.06688 -3.21838,-1.73305 -5.09091,-3.27273c-1.25961,-1.03571 -2.29617,-1.9573 -2.90909,-2.18182c-0.71984,-0.26368 -2.19014,-0.4991 -3.39394,-1.33333c-0.98626,-0.68348 -2.78592,-1.943 -4.12121,-2.66667c-1.57346,-0.85274 -2.52478,-1.37214 -3.63636,-1.93939c-1.78716,-0.91201 -3.02691,-1.58203 -4.36364,-2.30303c-1.81361,-0.97822 -2.92038,-1.55111 -4,-2.06061c-1.22557,-0.57838 -1.92627,-0.99343 -2.78788,-1.45455c-1.19484,-0.63946 -1.97362,-1.10312 -3.0303,-1.69697c-0.56904,-0.3198 -1.09091,-0.72727 -2.06061,-1.21212c-0.72727,-0.36364 -1.48179,-0.61747 -2.66667,-0.9697c-0.62569,-0.186 -1.476,-0.52669 -2.06061,-0.72727c-0.51274,-0.17592 -1.31079,-0.55139 -1.93939,-0.72727c-0.71004,-0.19867 -1.41851,-0.55047 -1.81818,-0.72727c-0.45705,-0.20218 -0.9777,-0.47002 -1.21212,-0.60606c-0.378,-0.21936 -0.60606,-0.48485 -0.9697,-0.84848c-0.12121,-0.12121 -0.36364,-0.48485 -0.48485,-0.48485c-0.12121,0 -0.27793,0.08571 -0.36364,0c-0.08571,-0.08571 0.05355,-0.18416 -0.36364,-0.48485c-0.21988,-0.15848 -0.36364,-0.12121 -0.36364,-0.12121c-0.12121,0 -0.24242,0 -0.36364,0c0,0 0,0.36364 0,1.69697c0,0.84848 0.12121,1.45455 0.24242,2.42424c0.12121,0.9697 0.12121,2.90909 0.12121,4.12121c0,1.09091 -0.12121,2.90909 -0.12121,4.12121c0,1.21212 -0.12121,3.15152 -0.12121,4.84849c0,1.93939 0,3.0303 0,4.36364c0,1.93939 0.13025,3.27793 0.24242,4.48485c0.1826,1.96472 0.64419,3.14684 0.84848,4.9697c0.14911,1.3305 0.29139,2.79028 0.36364,3.87879c0.12148,1.83024 0.23427,3.4044 0.48485,5.69697c0.16022,1.46588 0.43591,3.01549 0.84848,5.21212c0.2943,1.5669 0.51193,3.53115 0.9697,5.93939c0.30199,1.58873 0.73588,3.8781 0.84848,5.33334c0.13125,1.69622 0.402,4.37293 0.60606,5.81818c0.08641,0.612 -0.00846,1.08955 -0.12121,1.81818c-0.26214,1.69404 -0.30867,3.51917 -0.12121,6.06061c0.08961,1.21487 0.12121,2.54545 0.12121,4.72727c0,1.33333 -0.18176,3.63224 -0.24242,4.9697c-0.04943,1.08978 0.06026,2.42612 0,3.39394c-0.06072,0.97536 -0.12121,2.54546 -0.12121,3.27273c0,0.84849 0.05247,2.06305 0.12121,3.0303c0.06076,0.85494 0.30273,1.9304 0.36364,2.54546c0.07166,0.72373 0,0.9697 0,1.09091c0,0.12121 0,0.48485 0,1.0909c0,0.60606 0,0.84849 0,0.9697c0,0 0.13339,-0.08944 0.48485,-0.24242c1.39257,-0.60617 2.78607,-1.00318 4.60606,-2.18182c1.44601,-0.93644 2.7173,-2.29781 4.84848,-3.51515c1.4121,-0.80659 2.88755,-1.29036 4.9697,-2.66666c1.15293,-0.76208 2.77687,-2.20436 4,-2.78788c1.32189,-0.63064 2.94139,-1.5269 3.87879,-2.18182c1.13292,-0.79152 2.69164,-2.39308 3.75758,-3.27273c0.9938,-0.82011 2.5546,-2.17162 3.63636,-3.15152c1.58934,-1.43969 2.61878,-2.24173 3.51515,-2.90909c1.61815,-1.20473 2.82131,-1.89684 3.75758,-2.66667c1.25961,-1.03571 2.07238,-1.67692 2.90909,-2.18182c1.35314,-0.81652 2.41882,-1.46341 4,-2.42424c1.20802,-0.73407 2.27333,-1.37411 3.75758,-2.42424c0.71354,-0.50484 1.52271,-1.01927 2.54546,-2.06061c0.78306,-0.79729 1.42306,-1.72607 2.54546,-2.90909c0.7079,-0.74614 2.04342,-2.19436 2.66666,-3.0303c0.82607,-1.10799 1.74978,-2.48803 2.54546,-3.27273c0.67405,-0.66475 1.0353,-1.03257 1.57576,-1.45454c0.55708,-0.43496 1.26624,-0.62936 2.42424,-1.33333c1.40878,-0.85642 2.259,-1.77599 3.51515,-2.42424c1.88115,-0.97079 2.8249,-1.13475 3.39394,-1.45454c0.52834,-0.29693 0.60606,-0.48485 0.84849,-0.48485c0,0 -0.1218,-0.10927 -0.24242,-0.12121c-0.61506,-0.0609 -1.09183,-0.21665 -1.45454,-0.24242c-1.70989,-0.12152 -2.6752,-0.45754 -3.87879,-0.84848c-2.4428,-0.79346 -4.08939,-1.86402 -5.81818,-3.0303c-2.62031,-1.76771 -4.07108,-2.97935 -5.57575,-4c-2.11609,-1.43538 -3.31601,-1.87048 -4.12122,-2.42424c-1.41947,-0.9762 -2.40223,-2.08502 -3.87879,-3.39394c-0.83625,-0.74131 -1.668,-1.39441 -3.15152,-2.06061c-1.19092,-0.5348 -2.30586,-0.96562 -3.87878,-2.06061c-1.21432,-0.84534 -2.43231,-1.68541 -4,-2.78788c-0.85292,-0.59981 -1.73377,-1.86334 -2.54545,-2.30303c-0.76855,-0.41632 -2.41723,-1.46514 -4.24242,-2.66667c-2.41504,-1.58982 -3.87729,-2.5479 -5.45455,-3.51515c-2.17974,-1.33672 -3.78582,-2.37375 -5.33333,-3.27273c-1.97756,-1.1488 -2.93819,-1.78669 -4.12121,-2.90909c-0.99485,-0.94387 -1.89786,-1.75681 -3.27273,-2.66667c-0.58941,-0.39005 -1.27695,-0.88214 -2.42424,-1.21212c-0.82371,-0.23691 -2.16816,-0.65172 -2.90909,-0.84848c-0.59736,-0.15864 -1.47385,-0.43765 -1.81818,-0.60606c-0.3926,-0.19201 -0.74872,-0.28426 -1.33333,-0.48485c-1.02547,-0.35185 -1.96059,-0.67732 -3.15152,-1.21212c-0.4945,-0.22207 -0.81278,-0.4056 -1.09091,-0.60606c-0.21988,-0.15848 -0.36364,-0.12121 -0.36364,0c0,0.24242 -0.12003,1.06549 -0.24242,1.93939c-0.11769,0.84028 0.03425,1.8133 0.12121,2.54545c0.20067,1.68942 0.16869,2.78992 0.24242,4.12121c0.1214,2.19188 0.38375,3.87725 0.48485,5.33333c0.15135,2.17993 0.06062,3.87672 0,6.54545c-0.0468,2.06007 0.0345,3.88058 -0.12121,6.54545c-0.09924,1.6984 -0.27262,3.26957 -0.24242,5.45455c0.02017,1.45945 0.19753,2.79234 0.48485,5.45454c0.20972,1.9432 0.79364,5.07963 1.09091,7.0303c0.31258,2.05114 0.48485,5.33333 0.48485,7.27273c0,1.21212 0,1.69697 -0.12121,2.42424c-0.12121,0.72728 -0.2823,1.44792 -0.36364,2.06061c-0.2398,1.80637 0.00636,4.84812 0.12121,6.90909c0.12832,2.30265 0.12926,5.09139 0,7.15151c-0.11411,1.81864 -0.25308,4.60534 -0.36364,6.30303c-0.13414,2.05981 -0.12121,3.15151 -0.12121,4.12122c0,1.33333 -0.0235,2.30672 0.12121,3.15151c0.2087,1.21838 0.3785,1.81586 0.48485,2.54546c0.14096,0.96703 0.24242,1.57576 0.24242,1.81818c0,0.36363 0,0.48485 0,0.60606l0,0.12122l0,0l0,0" id="svg_56" stroke-width="3" stroke="#ff7f00" fill="none"/>
 </g>

</svg>