<svg width="100" height="100" xmlns="http://www.w3.org/2000/svg">
 <g>
  <title>Layer 1</title>
  <path d="m43.81819,19.09091c0.12121,0.36364 0.12121,0.9697 0.12121,2.18182c0,0.60606 0,3.0303 0,4.60606c0,2.42424 -0.08627,4.24276 -0.12121,6.06061c-0.06062,3.15326 -0.12121,5.21212 -0.12121,7.39394c0,3.0303 -0.06058,5.08824 -0.12121,7.15151c-0.08545,2.90784 0,5.09091 0,6.90909c0,2.30303 0.03249,3.88063 -0.12121,6.30303c-0.10007,1.57724 -0.00019,3.26266 0.12121,5.45455c0.07373,1.33129 0,2.66666 0,4.36363c0,0.84849 0.12121,1.45454 0.12121,2.06061c0,0.12121 0,0.24242 0,0.48485c0,0.12122 0.12121,0.36364 0.12121,0.60606c0,0.12121 0.12121,0.84848 0.12121,1.33333c0,0.36364 0,0.48485 0,0.84849c0,0.60606 -0.12121,1.57576 -0.12121,2.66666c0,1.33334 -0.06049,3.14586 -0.12121,4.12122c-0.04519,0.72587 -0.11587,1.69788 -0.24242,2.42424c-0.23262,1.33508 -0.27477,2.30848 -0.36364,3.0303c-0.12213,0.99205 -0.30274,1.68797 -0.36364,2.30303c-0.05972,0.6031 0,0.84848 0,0.9697c0,0 -0.11331,-0.1213 -0.12121,-0.48485c-0.06062,-2.78986 -0.12121,-5.45454 -0.12121,-10.9091c0,-4.72727 -0.14938,-9.58595 0.36364,-16c0.28175,-3.52266 0.70325,-7.27492 1.09091,-11.39394c0.22829,-2.42562 0.38494,-4.60461 0.60606,-8c0.13414,-2.05981 0.06524,-4.00763 0.24242,-6.06061c0.24332,-2.81924 0.84848,-4.60606 0.84848,-5.09091c0,-0.36364 0,-0.60606 0,-0.72727c0,-0.60606 -0.06055,-1.32955 -0.12121,-2.78788c-0.07052,-1.6955 0,-4.36364 0,-5.81818c0,-1.09091 0,-2.66667 0,-3.39394c0,-0.60606 0,-1.45455 0,-2.06061c0,-0.60606 0,-0.72727 0,-0.72727c0,0.24242 0.06038,0.60756 0,1.81818c-0.06068,1.21665 -0.57391,4.23516 -0.72727,6.66667c-0.29004,4.59852 -0.41711,8.36697 -0.60606,11.51515c-0.35702,5.94844 -0.69953,10.30392 -0.84848,14.54546c-0.20437,5.81964 -0.42424,8.96823 -0.48485,12.72727c-0.03713,2.30273 0.11173,4.03145 0.72728,6.30303c0.40101,1.47986 0.88089,2.8789 1.21212,4.9697c0.22838,1.44161 0.26973,2.80842 0.60606,4.12122c0.19026,0.74263 0.36364,1.09091 0.36364,1.21212c0,0.12122 0,0.24242 0.12121,0.24242c0,0 0.12121,0 0.12121,0.12122c0,0.12121 0,0.24242 0,0.24242c-0.12121,0.48485 -0.15672,1.0052 -0.24242,1.0909c-0.08571,0.08571 -0.39869,0.46515 -0.72727,1.09091c-0.6809,1.29671 -0.8127,2.90949 -0.84848,4.48485c-0.06062,2.66873 -0.09772,4.00369 -0.24242,4.84849c-0.10435,0.60918 -0.24242,0.84848 -0.12121,0.84848c0.12121,0 -0.21458,-0.24567 -0.24242,-0.36363c-0.06227,-0.26379 -0.14219,-0.34579 -0.24242,-0.48485c-0.15848,-0.21988 -0.09993,-0.49671 -0.24242,-0.72727c-0.31863,-0.51555 -0.84849,-0.9697 -1.57576,-1.69698c-1.21212,-1.21212 -2.10174,-2.02113 -3.0303,-3.0303c-1.39767,-1.51898 -2.27293,-2.58641 -3.75758,-4.36364c-1.16565,-1.39536 -1.96175,-2.8562 -2.90909,-4.12122c-1.54471,-2.06272 -2.76851,-3.20037 -4.12121,-5.21212c-1.18313,-1.75956 -2.07045,-3.50698 -3.87879,-5.69697c-1.0969,-1.32841 -1.66962,-2.55058 -3.0303,-4c-0.8819,-0.93941 -2.41262,-2.21272 -3.39394,-3.51515c-0.68813,-0.9133 -1.44288,-2.43216 -1.93939,-3.15152c-0.5923,-0.85815 -1.50784,-2.2347 -2.18182,-3.0303c-0.55401,-0.65398 -1.09091,-1.09091 -1.33333,-1.33333c-0.24242,-0.24242 -0.36364,-0.36364 -0.48485,-0.48485c-0.12121,-0.12121 -0.54814,-0.38648 -0.9697,-0.72727c-0.60357,-0.48794 -1.13287,-0.93399 -1.33333,-1.21212c-0.15848,-0.21988 -0.24242,-0.36364 -0.36364,-0.36364c0,0 -0.12121,0 -0.12121,-0.12121c0,0 -0.36364,-0.48485 -0.48485,-0.72727c-0.12121,-0.24242 -0.24242,-0.48485 -0.24242,-0.60606c0,0 0,-0.12121 0,-0.12121c0,-0.24242 0.01288,-0.4355 0.60606,-1.21212c0.4162,-0.54491 1.04833,-0.86721 2.18182,-1.81818c0.78794,-0.66106 1.49633,-1.77435 3.15152,-3.39394c1.04324,-1.02081 2.40309,-1.72969 4,-3.63636c0.77828,-0.92925 1.51951,-1.91109 3.27273,-2.90909c1.17775,-0.67042 2.84269,-1.38335 4.12121,-2.42424c1.39739,-1.13768 3.0303,-2.66667 4,-3.51515c0.9697,-0.84848 2.42959,-2.29638 3.63636,-3.27273c1.33931,-1.08357 2.42424,-1.69697 3.39394,-2.18182c1.21212,-0.60606 2.69734,-1.27756 3.39394,-1.69697c0.89329,-0.53783 1.44142,-0.99343 2.30303,-1.45455c1.19484,-0.63946 1.92314,-0.99502 2.66667,-1.45455c0.83129,-0.51377 1.30767,-0.5195 0.9697,-0.24242c-0.53027,0.43471 -1.45277,1.33533 -2.54545,2.30303c-2.05727,1.82195 -3.52226,2.89676 -5.21212,3.87879c-2.67807,1.5563 -3.9334,2.63235 -5.33333,3.63636c-0.92924,0.66644 -2.05426,1.23021 -3.75758,1.81818c-0.72466,0.25015 -1.43474,0.75446 -2.42424,1.45455c-1.07031,0.75726 -2.92823,1.78858 -3.87879,2.42424c-0.86676,0.57962 -1.56166,1.1124 -3.0303,2.06061c-0.96068,0.62025 -2.57423,1.66517 -3.51515,2.54546c-0.87625,0.81978 -2.48561,2.35093 -3.75758,3.87879c-1.04337,1.25327 -2.36209,3.07371 -3.39394,4.48485c-0.91623,1.25302 -2.16183,2.6804 -2.66667,3.39394c-0.70009,0.9895 -1.20669,1.27868 -1.33333,1.69697c-0.07025,0.23202 -0.0278,0.21099 0.24242,0c0.55709,-0.43496 1.98742,-1.1358 3.75758,-2.30303c2.24685,-1.48156 5.19181,-3.90189 7.39394,-5.81818c3.24317,-2.82221 6.15954,-5.48415 9.21212,-7.75758c4.45278,-3.31623 6.98234,-4.92273 9.57576,-6.54545c3.45415,-2.1613 5.6175,-3.56964 7.39394,-4.72727c2.11317,-1.37707 3.33205,-1.9542 4.48485,-2.66667c0.51555,-0.31862 0.91444,-0.8853 1.57576,-1.81818c0.44886,-0.63318 0.72727,-0.9697 0.84848,-1.21212c0.12121,-0.24242 -0.04726,-0.46117 -1.09091,-0.12121c-0.92919,0.30268 -1.80571,1.3504 -4.12121,3.0303c-1.68797,1.22463 -3.93557,2.95455 -7.51515,5.69697c-2.46442,1.88807 -5.93939,4.84848 -8.36364,6.78788c-2.42424,1.93939 -4.94414,3.80653 -6.30303,4.48485c-1.31042,0.65413 -3.12025,1.49166 -4.12121,2.30303c-0.94163,0.76328 -2.42796,1.93508 -3.27273,2.66667c-0.97401,0.84352 -1.42048,1.12851 -1.81818,1.45454c-0.67596,0.55415 -1.13988,0.89837 -1.69697,1.33334c-1.35114,1.05494 -2.33503,2.00129 -3.27273,2.54545c-1.13399,0.65808 -1.55225,1.00404 -2.42424,1.57576c-0.59107,0.38753 -1.22427,0.55628 -1.21212,0.72727c0.04296,0.60453 1.11668,1.05105 1.69697,1.45454c0.63723,0.44308 1.65591,1.39518 3.27273,2.42424c1.4206,0.90417 2.64017,1.7262 4.24242,3.15152c0.83496,0.74276 1.85401,1.41016 3.51515,2.78788c0.99178,0.82256 2.43599,2.17167 3.27273,3.15152c0.61478,0.71992 2.10642,1.99617 3.15152,2.78788c0.89078,0.67481 1.93939,1.81818 2.78788,2.66666c0.9697,0.9697 2.57423,2.15002 3.51515,3.0303c0.87625,0.81978 2.0074,2.23859 2.90909,3.0303c1.49389,1.31169 2.58678,2.14271 3.27273,2.90909c1.03524,1.15664 1.42234,1.97309 2.18182,2.66666c0.69906,0.6384 1.81818,1.57576 2.66667,2.42425c0.36364,0.36363 0.70923,0.54367 0.9697,1.0909c0.21479,0.45126 0.23861,1.01965 0.48485,1.45455c0.08446,0.14917 0.12121,0.24242 0.12121,0.24242c0,0 -0.08571,0.08571 0,0c0.17142,-0.17142 0.62704,-0.10336 0.72727,-0.24242c0.31697,-0.43976 0.54516,-1.08192 0.60606,-1.69698c0.11944,-1.20622 0.08865,-1.94002 0.12121,-2.78788c0.06065,-1.57925 0.36314,-2.28664 0.48485,-3.63636c0.06531,-0.72433 0.04267,-1.70116 -0.12121,-3.15151c-0.09624,-0.85168 -0.24242,-1.81818 -0.24242,-2.9091c0,-0.84848 -0.08714,-1.69938 0,-3.27273c0.0607,-1.09594 0.30288,-2.539 0.36364,-3.39394c0.05156,-0.72544 -0.12121,-1.93939 -0.24242,-2.66667c-0.12121,-0.72727 -0.12121,-1.57575 -0.12121,-2.30303c0,-0.84848 0.24784,-2.29301 0.24242,-3.0303c-0.00996,-1.35516 -0.39417,-1.92491 -0.72727,-2.66667c-0.53481,-1.19093 -0.74414,-2.05748 -0.84849,-2.66667c-0.14471,-0.8448 -0.12121,-1.09091 -0.12121,-1.33333c0,-0.12121 0,-0.24242 0,-0.84848c0,-0.12121 0,-0.24242 0,-0.24242c0,-0.12121 0,-0.24242 0,-0.24242c0.12121,0 0.13044,0.04639 0.24242,0c0.15837,-0.0656 0.12121,-0.12121 0.36364,-0.12121c0.12121,0 0.24243,0 0.36364,0c0,0 0.12121,0 0.12121,0c0,0 0.02844,0.13966 0.12121,0.36364c0.0656,0.15837 0.12121,0.24242 0.12121,0.24242c0.12121,0 0.15672,0.0355 0.24242,0.12121c0.08571,0.08571 -0.08571,0.15672 0,0.24242c0.08571,0.08571 0.0355,0.0355 0.12121,0.12121c0.08571,0.08571 0.12121,0.12121 0.24242,0.24242c0.24242,0.24242 0.49408,0.19604 0.60606,0.24242c0.15837,0.0656 0.21756,0.26912 0.60606,0.60606c0.45785,0.39709 1.01119,0.67435 1.33333,0.9697c0.57209,0.5245 0.83829,0.85679 1.33334,1.45455c0.71279,0.86068 1.16917,1.37827 2.18182,2.30303c0.69907,0.63839 1.52997,1.25462 2.54546,2.30303c0.65865,0.68001 1.10884,1.53878 1.81818,2.30303c0.64403,0.69388 1.30205,1.24144 2.66667,2.66667c1.06695,1.11435 2.298,2.42847 2.90909,3.15151c0.72136,0.85352 1.9394,2.06061 2.90909,3.0303c0.96969,0.9697 2.03284,2.08931 2.90909,2.90909c0.94093,0.88029 2.21035,2.02858 3.0303,2.78788c1.13197,1.04824 1.69697,1.69697 2.0606,2.06061c0.60606,0.60606 1.11912,1.17979 1.81818,1.81818c1.13922,1.04035 1.84592,1.6642 2.42424,2.18182c0.76638,0.68594 1.21923,1.2023 2.06061,1.81818c0.48904,0.35797 1.00841,0.8364 1.93939,1.45454c0.6774,0.44978 1.19167,0.99643 1.81818,1.45454c0.35278,0.25797 0.48485,0.24242 0.60606,0.36364c0.12121,0.12121 0.12121,0.12121 0.24242,0.24242c0,0 0.12121,0 0.36363,0.24242c0.60606,0.60606 1.45455,1.33333 1.81818,1.45454c0,0 0.08406,0.05561 0.24242,0.12121c0.11199,0.04639 0.13044,0.07483 0.24242,0.12122c0.31674,0.1312 0.21757,0.26911 0.60606,0.60606c0.45786,0.39709 1.01479,0.77395 1.45454,1.09091c0.13906,0.10023 0.24242,0.24242 0.36363,0.24242c0.12122,0 0.12122,0.12122 0.24242,0.12122c0,0 0,-0.24242 0,-0.24242c0.12122,-0.9697 0.2071,-1.82326 0.36364,-2.78788c0.19801,-1.22016 0.42345,-1.56104 0.48485,-1.9394c0.01942,-0.11964 0,-0.48485 0,-1.57575c0,-0.60606 0.30294,-1.81315 0.36364,-2.9091c0.02011,-0.36308 0.18176,-0.84436 0.24242,-2.18182c0.01648,-0.36326 0.02892,-1.70238 -0.12122,-2.42424c-0.10177,-0.4893 -0.24242,-1.93939 -0.24242,-2.78788c0,-0.24242 -0.18152,-1.32434 -0.24242,-1.93939c-0.03584,-0.36187 0,-1.9394 0,-3.0303c0,-1.21212 0,-2.66667 0,-3.39394c0,-1.45454 0,-2.66666 0,-3.63636c0,-1.09091 0,-2.06061 0,-2.18182c0,-0.36364 -0.17064,-1.33445 -0.12121,-2.42424c0.06067,-1.33746 0.58727,-3.00418 0.84848,-4.24243c0.40343,-1.9124 0.24242,-3.0303 0.24242,-4.12121c0,-1.69697 0,-2.78788 0,-3.75758c0,-1.45454 -0.06056,-2.54221 -0.12121,-4.24242c-0.02592,-0.72681 0.04205,-1.44604 0.24242,-2.54545c0.15368,-0.84321 0.48435,-1.43816 0.60606,-2.78788c0.06532,-0.72433 0,-1.57576 0,-2.78788c0,-0.84848 -0.21366,-1.9455 -0.48485,-3.15151c-0.10964,-0.48759 -0.12121,-1.21212 -0.12121,-1.69697c0,-0.48485 -0.06031,-1.68797 -0.12122,-2.30303c-0.02389,-0.24124 -0.03675,-0.9635 -0.12121,-1.57576c-0.21597,-1.56559 -0.05924,-1.94303 0,-2.42424c0.12212,-0.99205 0.43766,-1.82446 0.60606,-2.90909c0.09483,-0.61075 0.18161,-1.2046 0.24242,-1.93939c0.03999,-0.4832 0,-0.84848 0,-1.21212c0,-0.12121 0,-0.48485 0,-0.60606c0,-0.12121 0,-0.12121 0,-0.24242c0,-0.12121 -0.22632,0.13806 -0.60606,0.48485c-0.69906,0.6384 -1.37848,1.40638 -2.54546,2.54546c-0.79971,0.78059 -1.57576,1.57576 -2.78788,2.78788c-0.84849,0.84849 -1.58833,1.68178 -2.90909,2.78788c-0.85676,0.71751 -2.33064,1.78129 -3.15152,2.42424c-0.87978,0.68908 -2.35703,1.87248 -3.27273,2.66667c-0.90649,0.7862 -2.14948,1.84639 -2.78788,2.54546c-0.92476,1.01264 -1.60376,1.79495 -2.30302,2.66666c-0.75846,0.94551 -2.24953,1.97557 -3.0303,2.66667c-1.47752,1.30783 -2.55355,2.6575 -3.51515,3.51515c-1.34478,1.19941 -2.14119,1.86699 -3.15152,2.66667c-1.63519,1.29426 -2.95693,2.17506 -4.60606,3.15152c-1.16611,0.69046 -2.32722,1.16536 -4,2.0606c-0.86161,0.46112 -1.67007,0.88628 -2.30303,1.69697c-0.43496,0.55709 -0.93945,1.13131 -2.06061,1.93939c-0.70908,0.51108 -1.73558,0.87531 -2.42424,1.21212c-0.3926,0.19201 -0.97294,0.457 -1.09091,0.48485c-0.26379,0.06227 -0.36364,0.12122 -0.36364,0.12122c-0.12121,0.12121 -0.36364,0.24242 -0.48485,0.36364c-0.60606,0.60606 -0.72727,0.72727 -0.72727,0.72727c0,0 -0.0355,0.0355 -0.12121,0.12121c-0.08571,0.08571 0.15553,-0.09118 0.36364,-0.36364c0.59318,-0.77662 1.23898,-1.55211 2.30303,-2.78788c1.74178,-2.02287 2.98767,-3.44326 4.24242,-4.48485c1.99597,-1.65687 3.37574,-2.44605 4.9697,-3.75758c1.19867,-0.98628 2.61764,-2.235 4.84848,-4.24242c1.66142,-1.49503 3.45226,-2.60381 5.93939,-4.9697c1.86303,-1.77221 4.2798,-4.10593 5.9394,-5.33334c1.62197,-1.19958 4.20307,-2.38773 5.69697,-3.0303c1.30331,-0.56059 3.20283,-1.38524 3.87878,-1.93939c0.7954,-0.65207 1.37718,-1.61278 1.69698,-2.18182c0.29692,-0.52834 0.86899,-1.3135 1.45454,-1.93939c0.88029,-0.94092 1.38672,-1.52603 2.06061,-2.30303c0.79418,-0.9157 0.9967,-1.29988 1.45454,-1.69697c0.518,-0.44926 0.72727,-0.72728 0.84848,-0.84849c0.12122,-0.12121 0.26053,-0.42112 0.36364,-0.48485c0.23056,-0.14249 0.20777,-0.3893 0.48485,-0.72727c0.10868,-0.13257 0.24242,-0.24242 0.24242,-0.24242c0.12122,0 0.24242,0 0.24242,0c0.12122,0 0.08405,-0.05561 0.24242,-0.12121c0.11199,-0.04639 0.2332,-0.04638 0.12122,0c-0.63348,0.2624 -1.30056,1.48228 -1.81818,2.06061c-1.14323,1.2773 -2.95136,3.09489 -4.84849,5.33333c-1.16505,1.37466 -2.7674,2.81009 -4.60606,4.48485c-1.07906,0.98287 -2.23837,2.23824 -3.51515,3.63636c-0.80917,0.88606 -1.74978,1.88197 -2.54546,2.66667c-0.67405,0.66475 -2.08557,1.78702 -3.15151,2.66667c-0.9938,0.82012 -2.68188,1.91217 -4,2.66666c-1.8402,1.05334 -3.01502,1.83701 -3.75758,2.42424c-0.95075,0.75187 -2.25391,1.87033 -3.15152,2.66667c-1.61437,1.43223 -2.61689,2.59182 -3.63636,3.63636c-1.73714,1.77985 -2.92331,3.01484 -4.24242,4.24243c-1.57984,1.47023 -2.32914,2.33936 -3.63636,2.78788c-0.57326,0.19669 -0.84365,0.13139 -1.09091,0.24242c-0.59546,0.2674 -1.01867,0.41352 -1.57576,0.84849c-0.13511,0.1055 -0.24242,0.24242 -0.24242,0.36364c0,0 -0.1292,0.01749 0.12121,0.12121c0.35413,0.14669 1.13099,0.51588 2.30303,1.09091c2.14628,1.05301 3.35193,2.11758 4.48485,2.90909c1.87479,1.30983 3.41048,1.91517 4.48485,2.66666c1.84756,1.29233 3.10667,2.19564 4.84849,3.51516c0.89078,0.6748 1.69155,1.22099 3.27273,2.18182c1.20802,0.73407 2.33861,1.45365 4,2.54546c1.04291,0.68536 2.74364,1.47179 3.75758,2.30303c0.92796,0.76074 1.88071,2.11382 2.54546,2.78787c0.7847,0.79568 1.78584,1.72519 2.42424,2.42425c0.57798,0.6329 1.62708,1.97876 2.06061,2.66666c0.73686,1.1692 1.50435,1.90211 2.0606,2.30303c0.65964,0.47543 1.29764,0.64802 1.57576,0.84848c0.65963,0.47544 1.11657,0.57141 1.45454,0.84849c0.26513,0.21735 0.66936,0.58566 1.45455,0.9697c0.34433,0.1684 0.48061,0.48806 0.84848,0.9697c0.83888,1.09831 1.88783,2.23513 3.51515,3.75758c0.94093,0.88029 1.48021,1.29868 1.81818,1.57576c0.13257,0.10868 0.24242,0.12122 0.24242,0.12122c0,0 0,0.12121 0,0.12121c-0.12122,-0.12121 -0.12122,-0.24242 -0.12122,-0.36363c0,-0.24243 -0.21572,-0.58113 -0.36363,-1.33334c-0.35159,-1.78798 -0.12122,-3.0303 -0.12122,-4.84849c0,-1.69697 0,-3.51515 0,-6.42424c0,-1.93939 -0.20208,-3.53205 0.12122,-6.18182c0.22456,-1.84054 0.73473,-3.51419 1.0909,-6.30303c0.2476,-1.93874 0.35863,-5.47229 0.72728,-7.63636c0.27157,-1.59421 0.2626,-2.18216 0.24242,-2.78788c-0.06064,-1.82121 -0.32343,-4.00235 -0.48485,-6.42424c-0.09706,-1.45636 -0.28763,-2.905 -0.48486,-5.33333c-0.15731,-1.9368 -0.20724,-3.88091 -0.36363,-6.18182c-0.09898,-1.45623 -0.24242,-3.51515 -0.24242,-4.9697c0,-1.69697 0.02967,-3.88249 -0.12122,-4.9697c-0.10136,-0.7303 -0.35307,-2.06171 -0.48485,-3.27273c-0.22445,-2.06264 -0.62299,-3.27001 -0.84848,-4.72727c-0.26214,-1.69404 -0.36364,-2.54545 -0.36364,-2.78788c0,-0.24242 0,-0.36364 0,-0.48485l0,0" id="svg_52" stroke-width="3" stroke="#ffffff" fill="none"/>
 </g>

</svg>