<svg width="100" height="100" xmlns="http://www.w3.org/2000/svg">
 <g>
  <title>Layer 1</title>
  <path stroke-width="3" d="m36.97918,42.29158c0.20833,0.41667 0.15263,1.05492 0.625,2.91666c0.373,1.4701 0.83334,3.33333 1.45833,6.45833c0.41666,2.08333 0.77838,3.7232 1.25,6.87499c0.30984,2.07067 1.04166,4.79166 1.45833,6.45833c0.41666,1.66666 1.35825,4.59892 1.66667,6.24999c0.31545,1.68875 1.22229,3.75716 1.66666,5.41666c0.39231,1.46507 1.25,3.95834 1.45833,5.20833c0.20834,1.25 0.75848,3.55434 1.04166,5c0.33025,1.68592 0.41667,2.29166 0.41667,2.49999c0,0.41667 0,0.625 0,0.625c0,0 0.41666,-0.625 0.41666,-0.83333c0,-0.41666 0.11397,-1.69007 0.41667,-2.70833c0.63937,-2.1508 1.7677,-4.54005 2.70833,-6.875c1.40341,-3.48372 2.22125,-5.79468 2.91666,-8.54166c0.78211,-3.08942 1.32635,-5.1945 1.66667,-7.29166c0.53809,-3.31589 1.00771,-5.21292 1.25,-6.87499c0.36559,-2.50797 0.8313,-4.12296 1.04167,-5.62499c0.11559,-0.82528 0.1882,-1.87852 0.41666,-3.125c0.19151,-1.04489 0.35234,-2.30662 0.625,-3.33333c0.16909,-0.63674 0.44762,-1.65538 1.04167,-3.33333c0.21986,-0.62104 0.51947,-1.43303 0.625,-2.08333c0.03337,-0.20564 0,-0.20833 0,-0.41666c0,0 0,0.20833 0,0.41666c0,1.04167 -0.14468,2.30889 -0.625,3.95833c-0.92097,3.16267 -1.45834,5.83333 -2.29167,9.58332c-0.41666,1.875 -0.64496,3.74567 -1.04166,5.62499c-0.65821,3.11818 -0.78141,5.0492 -1.45833,7.91666c-0.45409,1.92355 -1.23893,3.66254 -2.08333,5.83333c-0.54984,1.41351 -0.87852,2.68997 -1.875,5.20833c-0.65491,1.65514 -1.48558,4.15791 -1.875,5.41666c-0.44825,1.44893 -0.79295,3.96467 -1.04166,5.41666c-0.17935,1.04704 -0.20833,2.08334 -0.20833,2.5c0,0.41666 -0.20834,0.83334 -0.20834,1.04166c0,0.20834 -0.20834,0.625 0,0.625c1.04166,0 -0.04242,-2.50039 0,-4.79166c0.10419,-5.62788 0.49936,-9.18371 1.04167,-12.70832c0.67728,-4.40185 1.37804,-6.89841 2.08333,-9.16666c1.31074,-4.21542 2.11429,-6.03038 2.70833,-7.70832c0.6596,-1.86311 1.12292,-3.09706 1.875,-5.41666c0.46778,-1.44275 0.78239,-2.66746 1.25,-4.79166c0.3167,-1.43869 0.68296,-2.90591 1.04167,-5c0.24871,-1.45199 0.31214,-2.48707 0.41666,-3.75c0.03437,-0.41525 0,-0.83333 0,-1.04166c0,-0.20833 0,-0.20833 0,-0.41667c0,-0.20833 0.1876,0.61216 0.20834,2.29166c0.02584,2.09356 -0.55692,5.21626 -0.83334,7.29166c-0.33461,2.5123 -0.5439,5.84412 -0.83333,7.70833c-0.32595,2.09943 -1.12283,5.44347 -1.66666,7.70832c-0.50784,2.11495 -1.56,4.95219 -2.5,7.08332c-1.17105,2.65496 -1.64859,4.38189 -2.29166,6.04166c-0.81064,2.09226 -1.29366,3.32156 -1.66667,4.79166c-0.47237,1.86174 -0.3914,3.14382 -0.625,4.58333c-0.10553,0.6503 -0.20834,0.83333 -0.20834,1.25c0,0 0,0.20833 0,0.62499c0,0.625 0,1.04167 0,2.08334c0,0.41666 0,0.83333 0,1.04166c0,0.20834 -0.19117,0.33607 -0.41666,-0.20834c-0.15945,-0.38495 -0.54594,-1.69698 -1.45833,-3.95833c-0.76773,-1.9028 -1.55887,-3.91415 -2.70833,-6.66666c-0.68593,-1.64252 -1.53786,-3.52278 -2.29166,-6.87499c-0.46611,-2.07284 -0.6706,-4.16051 -1.04166,-7.08333c-0.23759,-1.87152 -0.62002,-3.49569 -1.04167,-5.83333c-0.40847,-2.26457 -0.59574,-6.25348 -0.83333,-8.12499c-0.18553,-1.46141 -0.33455,-2.71239 -0.41667,-3.54166c-0.10468,-1.05713 -0.36695,-3.1343 -0.625,-4.375c-0.17492,-0.84098 -0.37374,-1.47655 -0.83333,-2.5c-0.38168,-0.84993 -1.03594,-2.42656 -1.25,-3.33333c-0.04786,-0.20276 0,0 0,0.20834c0,0.41666 0.41666,1.66666 1.04166,3.33333c0.625,1.66666 1.27725,4.36624 1.66666,5.625c0.44825,1.44894 1.1403,4.13958 1.66667,6.24999c0.77122,3.09216 0.77966,5.42707 1.25,7.70832c0.56126,2.72226 1.10568,4.34024 1.875,5.83333c1.36624,2.65159 1.91958,4.43209 2.5,5.83333c0.82082,1.98164 1.39013,3.06425 1.875,4.37499c0.59604,1.61124 0.66476,2.90723 1.04166,4.58333c0.23306,1.03642 0.2835,1.91982 0.83333,3.33333c0.16888,0.43417 0.30392,0.76947 0.41667,1.04167c0.07972,0.19247 0,0.20833 0,0.41666c0,0.20834 0,0.20834 0,0.41666l0,0.20834l0,0.20833l0.20833,0" id="svg_17" stroke="#bf0000" fill="none"/>
  <path stroke-width="3" d="m52.39584,14.58327c-0.20834,0 -0.41667,-0.20833 -0.83334,-0.20833c-1.04166,0 -1.6512,-0.10366 -2.70833,-0.20833c-1.45124,-0.1437 -2.5,-0.20833 -4.16666,-0.20833c-0.83333,0 -1.66666,0 -2.70833,0c-0.625,0 -1.66667,-0.20833 -2.91666,-0.20833c-0.625,0 -1.45833,0 -2.70833,0c-0.83333,0 -1.8828,0.08106 -2.91666,0.20833c-0.85254,0.10495 -2.02139,0.94612 -2.70833,1.25c-0.78555,0.3475 -2.09935,0.77738 -2.91666,1.04167c-1.06749,0.34518 -2.41064,1.18322 -3.33333,1.66666c-1.16711,0.61151 -2.21691,1.15633 -3.125,1.66667c-0.97804,0.54965 -2.29166,1.25 -3.33333,1.875c-1.04166,0.625 -1.45833,0.83333 -1.66666,0.83333c-0.20833,0 -0.54455,0.06187 -1.04167,0.625c-0.9249,1.04771 -1.45833,2.5 -1.875,3.33333c-0.20833,0.41667 -0.20833,0.625 -0.20833,0.625c0,0.20833 0.07814,0.32421 0.83333,1.04167c1.17965,1.12071 2.01487,1.97863 2.91667,2.5c1.37358,0.79413 2.54125,1.17353 3.75,1.875c1.94905,1.13108 3.03789,1.81509 4.375,2.5c1.58425,0.81151 2.90007,1.28499 3.75,1.66667c1.02345,0.45959 2.05096,0.94727 3.33333,1.25c1.43373,0.33846 2.70124,0.52073 5,0.625c1.0406,0.0472 1.67477,0.0441 3.33333,0.20833c1.05713,0.10468 2.2635,0.41582 4.58333,0.625c1.65993,0.14967 3.95525,0.23114 5.41666,0.41667c1.87152,0.23759 4.36207,0.31214 5.625,0.41666c1.03812,0.08591 2.50405,0.12622 3.33333,0.20834c1.05713,0.10468 2.29481,0.32805 3.54166,0.41666c1.46943,0.10443 2.50304,0.26992 3.125,0.20833c1.05712,-0.10468 1.66666,-0.41666 2.29166,-0.625c1.25,-0.41667 2.08972,-0.3984 2.70833,-0.625c1.05346,-0.38589 1.39834,-1.03784 2.5,-1.25c0.20457,-0.0394 0.44131,0.0983 0.625,0c0.66228,-0.35444 0.625,-1.04166 0.625,-1.66666c0,-0.41667 0,-1.25 0,-1.45833c0,-0.20833 -0.20834,-0.625 -0.20834,-0.83333c0,0 -0.80531,0.28178 -1.45833,-1.875c-0.24149,-0.79757 -0.20834,-1.45833 -0.20834,-1.875c0,-0.20833 -0.30392,-0.3528 -0.41666,-0.625c-0.07973,-0.19247 -0.61076,-0.64029 -0.83334,-0.83333c-0.78693,-0.6825 -0.91393,-1.0245 -1.45833,-1.25c-0.19247,-0.07973 -0.20834,-0.20833 -0.625,-0.625c-0.625,-0.625 -1.13725,-0.9778 -1.25,-1.25c-0.15945,-0.38495 -0.152,-0.67267 -1.04166,-1.66666c-0.39298,-0.43907 -1.08807,-0.98416 -1.875,-1.66667c-0.22257,-0.19304 -0.63875,-0.80784 -1.04166,-1.04167c-0.64968,-0.37703 -1.33146,-1.41031 -2.08333,-1.875c-0.56042,-0.34636 -1.37128,-1.06073 -1.45833,-1.25c-0.80259,-1.74501 -1.91909,-1.81544 -2.5,-2.29166c-1.13924,-0.93395 -1.69261,-1.69401 -2.70833,-2.29167c-1.30719,-0.76916 -2.24361,-0.8965 -2.5,-1.04167c-0.74748,-0.42322 -1.25312,-0.36576 -1.66667,-0.41667c-0.85254,-0.10495 -1.25,-0.20833 -2.29166,-0.20833c-0.625,0 -1.875,0 -3.33333,0c-1.04167,0 -2.08333,0 -3.33333,0c-1.04166,0 -2.71095,0.13449 -3.75,0.20833c-1.46943,0.10443 -2.51558,0.10825 -4.16666,0.41667c-0.84438,0.15773 -1.88307,0.52488 -2.5,0.625c-0.6503,0.10553 -1.37769,0.57679 -2.5,1.04167c-0.79359,0.32872 -2.31006,0.57341 -3.54166,1.04167c-1.48305,0.56385 -2.38501,0.71309 -2.91666,1.04167c-0.39627,0.24491 -0.72058,0.56113 -0.83333,0.83333c-0.07973,0.19248 -0.34989,0.32731 -0.83333,1.25c-0.30576,0.58356 -0.77583,1.2964 -1.45833,2.08333c-0.38608,0.44515 -0.92892,0.76946 -1.04167,1.04167c-0.07973,0.19247 0,0.20833 0,0.625c0,0.625 0.31199,2.06787 0.41667,3.125c0.06159,0.62196 -0.18111,0.86015 0,1.45833c0.21767,0.71893 0.44673,0.81961 0.625,1.25c0.25212,0.60866 0.14878,1.08577 0.625,1.66667c0.18679,0.22785 0.44468,0.74302 1.04167,1.45833c0.66744,0.79974 1.31187,1.58622 1.875,2.08333c0.34924,0.3083 0.88182,0.56942 2.08333,1.66666c0.87024,0.79472 1.99125,1.26617 3.125,2.08333c0.71704,0.51682 2.07457,1.27725 3.33333,1.66666c1.44894,0.44825 3.33759,0.73023 4.58333,0.83333c1.26292,0.10452 3.11826,0.64935 4.58333,1.04166c1.65949,0.44437 3.73079,0.72838 4.58333,0.83334c1.24063,0.15273 1.88121,-0.11366 2.91666,0c1.90926,0.20958 3.53967,0.64376 5.41666,0.83333c2.28947,0.23124 3.95439,0.45105 5.625,0.625c2.49517,0.2598 3.95833,0.41666 5.62499,0.41666c1.25,0 1.98006,-0.12375 2.91666,-0.625c0.25977,-0.13902 1.05988,-0.37373 2.08334,-0.83333c0.84992,-0.38167 1.66666,-0.83333 2.70833,-1.45833c1.04166,-0.625 1.91375,-0.97762 2.29166,-1.25c0.23901,-0.17227 0.41666,-0.625 0.83333,-1.25c0.83334,-1.25 1.04167,-2.08333 1.04167,-2.70833c0,-0.20833 0,-0.83333 0,-1.04166c0,-0.20834 0.00944,-0.41688 0,-0.625c-0.10428,-2.29875 -0.37289,-3.34967 -0.625,-3.95833c-0.17827,-0.43039 -0.41667,-0.625 -0.41667,-0.83333c0,-0.20833 -0.16352,-0.25569 -1.04166,-1.04167c-0.99399,-0.88966 -2.00527,-1.5445 -2.91666,-2.29166c-0.5809,-0.47622 -1.02215,-0.85487 -1.25,-1.04167c-0.58089,-0.47622 -1.39017,-0.89172 -2.29166,-1.875c-0.50762,-0.55367 -1.2618,-1.44115 -1.87499,-1.875c-0.85036,-0.60164 -2.37727,-1.39425 -3.33333,-2.08333c-1.13374,-0.81716 -2.5441,-1.60711 -3.125,-2.08333c-1.13924,-0.93396 -2.05589,-1.51845 -2.91666,-1.875c-1.21732,-0.50423 -2.69287,-1.14532 -3.75,-1.25c-1.0366,-0.10264 -1.87642,-0.17397 -2.29167,-0.20833c-1.26292,-0.10452 -2.29296,-0.15644 -3.33333,-0.20833c-2.09112,-0.1043 -3.38553,-0.18576 -4.79166,-0.625c-0.44466,-0.1389 -0.625,-0.20833 -0.83334,-0.20833l-0.20833,0l-0.20833,0l0,0" id="svg_18" stroke="#bf0000" fill="none"/>
  <path d="m8.43754,6.87495c0.20833,0.41667 0.625,0.83333 2.29167,2.5c2.08333,2.08333 3.57524,4.32712 6.45833,7.29166c2.36446,2.43126 4.70816,3.84486 7.91666,7.49999c1.95335,2.22526 5.35806,5.49733 7.29166,7.91666c1.58768,1.98652 3.84654,4.90773 5.83332,7.08332c2.19448,2.40303 4.52776,5.04848 5.625,6.25c1.39075,1.52292 3.79976,3.90397 5.625,5.62499c1.28617,1.21274 3.3009,3.36662 4.58333,4.58333c2.03332,1.92912 3.75,3.33333 5,4.58333c1.66666,1.66666 2.5,2.70833 3.54166,3.75c1.45834,1.45833 2.80257,2.38631 4.58333,3.95833c1.10439,0.97493 2.08334,2.08333 3.125,3.12499c0.625,0.625 1.25,1.04166 1.66666,1.66666c0.41666,0.625 0.8983,1.20376 2.29166,2.29166c0.9575,0.74759 2.26036,1.18787 3.33333,2.08334c0.79974,0.66744 1.66666,1.66666 1.875,1.87499c0.20834,0.20834 0.41666,0.41667 0.41666,0.41667c0.20834,0 0.26936,0.06101 0.41667,0.20833c0.14732,0.14732 0.38698,1.08019 1.45833,1.875c0.90102,0.66845 1.25,0.625 1.45834,0.83334c0,0 0.06102,0.06102 0.20833,0.20833c0.14732,0.14732 0.11275,0.2722 0,0c-0.07973,-0.19247 -0.41666,-0.41666 -0.625,-0.625c-0.20833,-0.20833 -0.77121,-0.8428 -0.83333,-1.04166c-0.98218,-3.1442 -3.23448,-4.48235 -4.58333,-5.62499c-1.36745,-1.1584 -1.53893,-1.44117 -2.08334,-1.66666c-0.38495,-0.15945 -2.13971,-1.40379 -3.74999,-3.125c-1.51299,-1.61721 -1.66666,-1.875 -1.875,-2.08333c-0.62501,-0.62499 -1.47806,-1.43246 -3.125,-2.70834c-1.05455,-0.81696 -1.87499,-1.24999 -2.08333,-1.45833c-1.25,-1.25 -2.83384,-2.58839 -5.41666,-5.41666c-1.09724,-1.20152 -2.00288,-1.93687 -2.5,-2.5c-0.3083,-0.34924 -1.75992,-1.77378 -3.125,-3.125c-1.57394,-1.55796 -3.1842,-3.06898 -4.16666,-4.16666c-0.88966,-0.99399 -3.00856,-2.84636 -4.58333,-4.99999c-1.33011,-1.81904 -2.86109,-4.00682 -3.95833,-5.20833c-1.19207,-1.30536 -3.91951,-4.40459 -5.83333,-6.87499c-2.45088,-3.16366 -4.01626,-4.52797 -5.20833,-5.83333c-2.19448,-2.40302 -3.56945,-4.14276 -5,-5.83333c-1.91267,-2.26032 -2.95085,-3.88738 -4.79166,-6.04166c-1.14839,-1.34394 -1.75588,-2.37986 -2.70833,-3.54166c-0.56037,-0.68354 -1.38711,-1.32646 -2.5,-2.29167c-0.78693,-0.6825 -1.875,-1.66666 -3.33333,-3.125c-0.625,-0.625 -1.42175,-1.06206 -1.66667,-1.45833c-0.10953,-0.17722 -0.13621,-0.2697 0.20833,0.20833c0.54477,0.75583 1.70085,3.05405 3.54166,5.20833c0.95699,1.11995 4.47259,5.49541 5.83333,7.29166c2.31965,3.06205 4.52997,5.04544 6.66666,7.49999c2.03349,2.336 2.83895,3.6089 3.75,4.58333c2.31617,2.47731 4.58333,4.58333 7.29166,7.29166c1.25,1.25 2.93211,2.9024 5.62499,5.83333c2.09541,2.28063 3.97004,4.18438 7.29166,6.87499c1.97607,1.60068 3.66558,3.21193 6.66666,6.04166c1.82523,1.72102 4.84071,4.11162 6.25,5.41666c1.51322,1.40129 3.49553,3.38161 4.58333,4.375c1.20152,1.09724 2.75738,2.44495 4.16666,3.74999c1.51322,1.40129 3.12499,3.125 4.16666,4.16666c1.04166,1.04166 3.27975,2.57178 4.37499,3.33333c0.99738,0.6935 1.48944,0.72381 1.66666,0.83334c0.39627,0.24491 0.42735,0.55912 0.625,0.625c0.98821,0.32941 1.36441,1.65732 2.08333,1.87499c0.19939,0.06037 0.14447,0.30392 0.41667,0.41667c0.19247,0.07973 0.33694,0.4008 0.41666,0.20833c0.11275,-0.2722 -1.30021,-1.19607 -3.54166,-3.33333c-2.55876,-2.43982 -6.94686,-6.82312 -9.79166,-9.16666c-2.991,-2.46399 -5.03133,-4.12899 -7.29166,-6.04166c-3.38115,-2.8611 -5.20833,-4.79166 -7.29166,-6.875c-2.70833,-2.70833 -4.12232,-4.2165 -6.45832,-6.24999c-1.22728,-1.06834 -3.17582,-2.65499 -6.45833,-5.83333c-1.69332,-1.63958 -3.06226,-3.39852 -4.79166,-5c-1.40929,-1.30504 -2.8629,-2.7587 -5.20833,-5.20833c-1.22255,-1.27686 -2.64659,-2.55611 -4.16666,-4.16666c-1.63041,-1.72746 -4.03769,-4.72402 -5.625,-6.66666c-1.31818,-1.61328 -2.94563,-3.30565 -3.54166,-3.95833c-1.09724,-1.20151 -3.16929,-2.63983 -4.16666,-3.33333c-1.09524,-0.76155 -1.96061,-1.81091 -2.91667,-2.5c-0.75583,-0.54477 -1.9191,-1.60711 -2.5,-2.08333c-0.4557,-0.37358 -0.41667,-0.625 -0.41667,-0.625c0,0 -0.06102,-0.06102 -0.20833,-0.20833c-0.14731,-0.14731 -0.54854,-0.87458 -1.25,-2.08333c-0.75405,-1.29936 -1.66667,-2.08333 -1.875,-2.5l-0.20833,-0.41667l-0.20833,-0.20833" id="svg_20" stroke="#ffffff" fill="none"/>
 </g>

</svg>